<?xml version="1.0" encoding="utf-8"?>
<!-- Generator: Adobe Illustrator 22.1.0, SVG Export Plug-In . SVG Version: 6.00 Build 0)  -->
<svg version="1.1" id="_x32_71e5882-3c8d-41ed-8a0a-1cb2b4d0cbc1"
	 xmlns="http://www.w3.org/2000/svg" xmlns:xlink="http://www.w3.org/1999/xlink" x="0px" y="0px" viewBox="0 0 1137.7 859.7"
	 style="enable-background:new 0 0 1137.7 859.7;" xml:space="preserve">
<style type="text/css">
	.st0{fill:#B2C9C6;}
	.st1{fill:#BED5DC;}
	.st2{fill:#42428E;}
	.st3{opacity:0.6;}
	.st4{fill:#7DBFDB;}
	.st5{opacity:0.5;}
	.st6{fill:#74A1BD;}
	.st7{fill:#9BBCB6;}
	.st8{fill:#CFD3A3;}
	.st9{fill:#C4C695;}
	.st10{fill:#F7B686;}
	.st11{fill:#2F1A31;}
	.st12{fill:#6F4975;}
	.st13{fill:#020202;}
	.st14{fill:#E28569;}
	.st15{fill:#DB6B49;}
	.st16{fill:#FFFFFF;}
	.st17{fill:#060633;}
	.st18{opacity:0.3;}
	.st19{fill:#E08B65;}
	.st20{fill:#DEEBE9;}
	.st21{fill:#436E8E;}
	.st22{fill:#DD8964;}
	.st23{fill:#E6EDFF;}
	.st24{fill:#B7B784;}
	.st25{fill:#D3715B;}
	.st26{fill:#5F3B66;}
	.st27{fill:#E7F2F0;}
	.st28{fill:#96A7E2;}
	.st29{fill:#EAA97D;}
	.st30{fill:#CED891;}
</style>
<title>team spirit</title>
<g>
	<g>
		<g>
			<g>
				<path class="st0" d="M371.5,395c-3.7,2.7-5.7,2.3-6.7,0.8c-1-1.5-0.8-3.4,2.9-6.1c6.8-4.8,11.9-4.5,11.9-4.5
					S378.4,390.1,371.5,395z"/>
			</g>
			<g>
				<g>
					<g>
						<path class="st0" d="M379,501.3l-0.9,0c0-0.1-0.1-13.5-6.3-32.6c-5.7-17.6-18-43.8-43.8-68.6l0.6-0.6c26,24.9,38.3,51.3,44,69
							C378.9,487.7,379,501.2,379,501.3z"/>
					</g>
				</g>
				<g>
					<g>
						<path class="st0" d="M354.7,431.3l-0.8-0.4c14.5-27.8,1.5-58.9,1.4-59.2l0.8-0.3C356.2,371.7,369.4,403.2,354.7,431.3z"/>
					</g>
				</g>
				<g>
					<g>
						<path class="st0" d="M340.5,418.5c-8.7,0.8-15.7-3-15.8-3l0.4-0.8c0.1,0,9.1,4.9,19.2,2.3l0.2,0.8
							C343.2,418.2,341.8,418.4,340.5,418.5z"/>
					</g>
				</g>
				<g>
					<g>
						<path class="st0" d="M327,395.3c4.9,3.7,5.5,6,4.4,7.4c-1.1,1.4-3.4,1.5-8.3-2.2c-9-6.7-11.3-12.6-11.3-12.6
							S317.9,388.5,327,395.3z"/>
					</g>
				</g>
				<g>
					<g>
						<path class="st0" d="M326.8,412.5c5.8,2,7.1,4,6.5,5.7c-0.6,1.7-2.8,2.4-8.6,0.4C314,414.9,310,410,310,410
							S316,408.7,326.8,412.5z"/>
					</g>
				</g>
				<g>
					<g>
						<path class="st0" d="M348.1,404c1.4,4.3,0.5,6.1-1.2,6.6c-1.7,0.6-3.5-0.3-4.9-4.6c-2.6-7.9-0.8-12.7-0.8-12.7
							S345.4,396,348.1,404z"/>
					</g>
				</g>
				<g>
					<g>
						<path class="st0" d="M357.6,367.8c2,5.8,1.2,8-0.5,8.6c-1.7,0.6-3.7-0.7-5.6-6.5c-3.6-10.6-2.2-16.8-2.2-16.8
							S354,357,357.6,367.8z"/>
					</g>
				</g>
			</g>
		</g>
	</g>
	<g>
		<ellipse class="st1" cx="572.8" cy="656" rx="487.7" ry="73.8"/>
	</g>
	<g>
		<path class="st2" d="M292.4,705.2l-0.3-0.4c0,0,2.9-1.9,3.3-4.1c0.1-0.8,0-1.5-0.5-2.2c-0.3-0.5-0.8-0.7-1.3-0.7
			c-2.5,0-6,5.1-6.1,5.2l-0.6,0.9l0.2-1.1c0,0,0.8-4.5-0.8-5.9c-0.5-0.4-1.2-0.5-2.1-0.2c-0.9,0.3-1.6,0.9-1.9,1.7
			c-1,2.5,0.9,6.4,0.9,6.4l-0.5,0.2c-0.1-0.2-2-4.2-0.9-6.8c0.4-1,1.2-1.6,2.2-2c1.1-0.4,1.9-0.3,2.6,0.3c1.3,1.1,1.2,3.9,1.1,5.4
			c1.2-1.5,3.8-4.6,5.9-4.6c0.7,0,1.3,0.3,1.7,0.9c0.6,0.8,0.8,1.6,0.6,2.5C295.5,703.2,292.5,705.2,292.4,705.2z"/>
	</g>
	<g>
		<path class="st2" d="M938.3,650l-0.3-0.5c0,0,3.4-2.2,3.8-4.8c0.2-0.9-0.1-1.7-0.6-2.5c-0.4-0.5-0.9-0.8-1.5-0.8c0,0,0,0,0,0
			c-2.9,0-7.1,6-7.1,6.1l-0.8,1.1l0.2-1.3c0-0.1,0.9-5.3-0.9-6.9c-0.6-0.5-1.4-0.6-2.4-0.2c-1.1,0.4-1.8,1.1-2.2,2
			c-1.2,2.9,1,7.5,1,7.5l-0.5,0.3c-0.1-0.2-2.3-4.9-1-8c0.5-1.1,1.3-1.9,2.6-2.4c1.2-0.4,2.3-0.3,3,0.3c1.5,1.3,1.4,4.6,1.3,6.3
			c1.3-1.7,4.4-5.4,6.9-5.4c0.8,0,1.5,0.3,2,1c0.7,0.9,0.9,1.9,0.7,3C941.9,647.7,938.5,649.9,938.3,650z"/>
	</g>
	<g>
		<path class="st2" d="M413.1,685.1c-0.2-0.1-4-2.7-4.6-5.9c-0.2-1.2,0.1-2.3,0.8-3.4c0.6-0.8,1.4-1.2,2.2-1.2
			c2.8,0,6.3,4.2,7.9,6.2c-0.2-2-0.3-5.7,1.4-7.2c0.8-0.7,2-0.8,3.4-0.4c1.4,0.5,2.4,1.4,2.9,2.7c1.5,3.6-1.1,8.8-1.2,9.1l-0.6-0.3
			c0-0.1,2.5-5.3,1.2-8.5c-0.5-1.1-1.3-1.9-2.6-2.3c-1.2-0.4-2.1-0.3-2.8,0.2c-2.1,1.8-1.1,7.8-1.1,7.8l0.2,1.4l-0.8-1.2
			c0-0.1-4.8-6.8-8.1-6.9c-0.7,0-1.3,0.3-1.7,0.9c-0.7,0.9-0.9,1.9-0.7,2.9c0.5,2.9,4.3,5.5,4.3,5.5L413.1,685.1z"/>
	</g>
	<g>
		<path class="st2" d="M491.4,627.8c-0.1-1.2-0.5-2-1.3-2.5c-1.7-1.1-4.4-0.1-4.4-0.1l-0.9,0.3l0.7-0.7c0,0,1.9-2.2,1.5-3.7
			c-0.1-0.6-0.6-1-1.4-1.3c-3.4-1.2-6.2,5.7-6.3,6.1c0,0,0,0,0,0l-0.5-0.2c0,0,0,0,0,0c0-0.1,0.6-1.5-0.1-2.5
			c-0.4-0.6-1.1-0.9-2.2-1c-1-0.1-1.7,0.2-2.1,0.7c-0.7,1,0,2.7,0,2.8l-0.5,0.2c0-0.1-0.8-2,0.1-3.2c0.5-0.7,1.3-1,2.5-0.9
			c1.3,0.1,2.1,0.5,2.6,1.2c0.2,0.4,0.3,0.8,0.4,1.2c1.1-2.2,3.4-5.8,6.2-4.8c1,0.3,1.6,0.9,1.8,1.7c0.3,1.3-0.6,2.7-1.2,3.5
			c1-0.2,2.8-0.5,4.1,0.3c0.9,0.6,1.4,1.5,1.5,2.9L491.4,627.8z"/>
	</g>
	<g>
		<path class="st2" d="M657.6,686.3c-0.3-0.3-6.5-6.7-4.2-10.5c0.4-0.6,0.8-0.9,1.3-0.8c1.6,0.2,3.5,4.5,4.4,7
			c-0.3-3.2-0.7-9.5,1.1-11.6c0.4-0.5,0.8-0.7,1.4-0.7c0.5,0,1,0.2,1.3,0.6c1.6,2,0.2,8.8-0.6,12.1c0.6-0.9,1.4-2,2.3-2.1
			c0.4-0.1,0.7,0.1,0.9,0.4c0.5,0.9-0.2,3.3-2.3,5.7l-0.3-0.3c2-2.3,2.6-4.5,2.2-5.2c-0.1-0.2-0.2-0.2-0.5-0.2
			c-1.1,0.2-2.4,2.5-2.8,3.4l-0.4-0.1c0-0.1,3-11,1.1-13.4c-0.2-0.3-0.5-0.4-0.9-0.4c-0.4,0-0.8,0.2-1.1,0.6
			c-2.2,2.7-0.8,13.1-0.8,13.2l-0.4,0.1c-0.7-2.3-3-8.4-4.7-8.5c-0.3,0-0.6,0.2-0.9,0.6c-2.1,3.5,4.1,9.9,4.2,10L657.6,686.3z"/>
	</g>
	<g>
		<g>
			<path class="st1" d="M731.6,709.4c0,0-12.7-12.9-8.3-20.3c4.4-7.4,11.7,15.8,11.7,15.8s-3.8-27.4,4.1-27.9c7.9-0.5,0,27.9,0,27.9
				s2.9-6.6,5.8-7c2.9-0.4,2,5.6-3.1,11.5H731.6z"/>
		</g>
		<g>
			<path class="st2" d="M732.5,709.7c0,0-3.7-3.8-6.6-8.5c-4.1-6.4-5-11.5-2.9-15.1c0.8-1.4,1.8-2,2.9-1.9
				c3.7,0.4,7.8,10.1,9.9,15.9c-0.2-2.3-0.5-5.3-0.5-8.5c-0.2-9.1,0.8-15,3-17.7c0.9-1,1.9-1.6,3.1-1.7c1.2-0.1,2.1,0.4,2.9,1.3
				c3.6,4.4,0.3,19.9-1.4,27.2c1.3-2.1,3.2-4.5,5.1-4.8c0.9-0.1,1.6,0.2,2,0.9c1.2,2.1-0.4,7.5-5.1,12.9l-0.7-0.6
				c4.6-5.3,5.8-10.2,5-11.8c-0.2-0.4-0.6-0.5-1.1-0.5c-2.5,0.4-5.3,5.7-6.2,7.7l-0.9-0.3c0-0.1,1.8-6.3,2.9-13.2
				c1.5-8.9,1.4-14.8-0.3-17c-0.5-0.7-1.2-1-2.1-0.9c-1,0.1-1.8,0.5-2.4,1.4c-5,6.1-1.8,29.5-1.8,29.8l-0.9,0.2
				c-1.7-5.2-6.8-18.8-10.5-19.3c-0.7-0.1-1.4,0.4-2,1.4c-4.7,8,9.2,22.3,9.4,22.5L732.5,709.7z"/>
		</g>
	</g>
	<g>
		<g>
			<path class="st1" d="M1027.5,643c0,0-16.3-16.7-10.7-26.2c5.6-9.5,15.1,20.5,15.1,20.5s-4.9-35.5,5.3-36.1
				c10.2-0.6,0,36.1,0,36.1s3.8-8.6,7.4-9.1c3.7-0.5,2.6,7.3-3.9,14.9H1027.5z"/>
		</g>
		<g>
			<path class="st2" d="M1028.6,643.4c0,0-4.7-4.9-8.5-10.9c-5.2-8.3-6.4-14.9-3.7-19.6c1-1.7,2.3-2.6,3.7-2.4
				c2.8,0.3,6.1,4.8,9.8,13.3c1.1,2.6,2.1,5.2,2.9,7.3c-0.9-9.3-1.9-27.8,3.2-34c1.1-1.3,2.4-2.1,4-2.2c1.5-0.1,2.7,0.4,3.7,1.6
				c4.6,5.7,0.5,25.8-1.8,35.2c1.7-2.8,4.1-5.8,6.5-6.2c1.2-0.2,2.1,0.3,2.6,1.2c1.5,2.7-0.5,9.7-6.5,16.6l-0.9-0.8
				c5.9-6.8,7.5-13.3,6.4-15.3c-0.3-0.5-0.7-0.7-1.4-0.6c-3.2,0.5-6.8,7.3-8,10l-1.1-0.4c0-0.1,2.3-8.2,3.7-17
				c2-11.6,1.8-19.2-0.5-22c-0.7-0.8-1.6-1.2-2.7-1.2c-1.2,0.1-2.2,0.6-3.1,1.7c-6.4,7.9-2.3,38.2-2.3,38.5l-1.2,0.3
				c-2.1-6.7-8.7-24.3-13.5-24.9c-0.9-0.1-1.7,0.5-2.5,1.8c-6.1,10.3,11.9,28.9,12,29L1028.6,643.4z"/>
		</g>
	</g>
	<g>
		<g>
			<path class="st1" d="M104.5,649.9c0,0-16.3-16.6-10.7-26.1c5.6-9.5,15.1,20.4,15.1,20.4s-4.9-35.3,5.3-35.9
				c10.2-0.6,0,35.9,0,35.9s3.8-8.5,7.5-9c3.7-0.5,2.6,7.2-3.9,14.8H104.5z"/>
		</g>
		<g>
			<path class="st2" d="M105.7,650.3c0,0-4.7-4.8-8.5-10.9c-5.2-8.3-6.5-14.8-3.7-19.5c1-1.7,2.3-2.5,3.7-2.4
				c2.8,0.3,6.1,4.8,9.8,13.2c1.1,2.6,2.1,5.1,2.9,7.3c-0.9-9.2-1.9-27.6,3.1-33.8c1.1-1.3,2.5-2.1,4-2.2c1.5-0.1,2.8,0.5,3.7,1.6
				c4.6,5.7,0.4,25.7-1.8,35c1.7-2.7,4.1-5.8,6.6-6.2c1.2-0.2,2.1,0.3,2.6,1.2c1.5,2.7-0.6,9.7-6.5,16.5l-0.9-0.8
				c5.9-6.8,7.5-13.2,6.4-15.2c-0.3-0.5-0.7-0.7-1.4-0.6c-3.2,0.5-6.8,7.3-8,9.9l-1.1-0.4c0-0.1,2.3-8.1,3.8-16.9
				c2-11.5,1.8-19.1-0.4-21.9c-0.7-0.9-1.6-1.2-2.7-1.2c-1.2,0.1-2.3,0.6-3.2,1.7c-6.4,7.8-2.3,38-2.3,38.3l-1.2,0.3
				c-2.1-6.7-8.7-24.2-13.5-24.8c-0.9-0.1-1.7,0.5-2.5,1.8c-6.1,10.2,11.9,28.7,12.1,28.9L105.7,650.3z"/>
		</g>
	</g>
	<g>
		<g>
			<path class="st1" d="M510.7,677.3c0,0-8.3-8.5-5.5-13.3c2.9-4.8,7.7,10.4,7.7,10.4s-2.5-18,2.7-18.3c5.2-0.3,0,18.3,0,18.3
				s1.9-4.3,3.8-4.6c1.9-0.3,1.3,3.7-2,7.5H510.7z"/>
		</g>
		<g>
			<path class="st2" d="M511.3,677.5c0,0-2.4-2.5-4.4-5.5c-2.7-4.2-3.3-7.5-1.9-9.9c0.5-0.9,1.2-1.3,1.9-1.2c1.4,0.2,3.1,2.4,5,6.7
				c0.6,1.3,1.1,2.6,1.5,3.7c-0.5-4.7-1-14.1,1.6-17.2c0.6-0.7,1.2-1.1,2-1.1c0.8,0,1.4,0.2,1.9,0.8c2.3,2.9,0.2,13.1-0.9,17.8
				c0.9-1.4,2.1-3,3.3-3.1c0.6-0.1,1.1,0.1,1.3,0.6c0.8,1.4-0.3,4.9-3.3,8.4l-0.5-0.4c3-3.5,3.8-6.7,3.3-7.7
				c-0.1-0.3-0.4-0.4-0.7-0.3c-1.6,0.2-3.5,3.7-4.1,5l-0.6-0.2c0-0.2,4.5-16.3,1.7-19.8c-0.4-0.4-0.8-0.6-1.4-0.6
				c-0.6,0-1.1,0.3-1.6,0.9c-3.3,4-1.2,19.4-1.2,19.5l-0.6,0.1c-1.1-3.4-4.4-12.3-6.9-12.6c-0.5-0.1-0.9,0.2-1.3,0.9
				c-3.1,5.2,6.1,14.6,6.1,14.7L511.3,677.5z"/>
		</g>
	</g>
	<g>
		<g class="st3">
			<path class="st4" d="M810.1,529.8c0,0,98.3-347.1,191.5-316.9c93.2,30.2-117.4,218-142.8,319.9L810.1,529.8z"/>
		</g>
		<g>
			<g class="st3">
				<path class="st0" d="M879.7,511.6c0,0,120.3-208.1,186.8-172.6c66.5,35.5-117.7,121.2-150.4,182.9L879.7,511.6z"/>
			</g>
			<g>
				<g>
					<path class="st0" d="M900,517.5c21.8-43,60.1-81.9,88.4-107c30.7-27.2,56.5-44.3,56.8-44.5l-1.1-1.6
						c-0.3,0.2-26.2,17.4-57,44.7c-28.4,25.2-66.9,64.2-88.9,107.5L900,517.5z"/>
				</g>
			</g>
		</g>
		<g>
			<g>
				<g>
					<path class="st0" d="M1058,547.9c-28.9,8.3-21.1,52.3-55,46.3c-28.7-5.1-31.2-7.6-40.5,1.2c-3.2,3-5.8,6.5-8,10.3
						c-2.6,4.5-7.9,11.3-16.3,13.3c-51.8,12.6-128.5-60.1-76.6-106.4c3.7-3.3,9.4-4.9,15.7-6.3c34.1-7.6,45.9,7.5,70.4-35
						c24.5-42.4,65.2,13.4,88.2,9.8c23-3.6,42.9-11.9,62.6,11.5C1118,515.9,1086.8,539.6,1058,547.9z"/>
				</g>
			</g>
			<g class="st5">
				<g>
					<g>
						<path class="st6" d="M881.9,567.8l-1.2-1.6c0.7-0.5,70.7-53.4,222.3-67l0.2,2C952.1,514.7,882.5,567.3,881.9,567.8z"/>
					</g>
				</g>
				<g>
					<g>
						<path class="st6" d="M972.5,502.9c-21.2-16.7-25.7-30.8-25.9-31.4l1.9-0.6c0,0.1,4.5,14.1,25.2,30.4L972.5,502.9z"/>
					</g>
				</g>
				<g>
					<g>
						<path class="st6" d="M977.4,524c-6.3-9.6-6.7-23.9-1.2-41.4c4.1-13.2,10.2-23.6,10.2-23.8l1.7,1c-0.2,0.4-23.6,41.2-9.1,63.1
							L977.4,524z"/>
					</g>
				</g>
				<g>
					<g>
						<path class="st6" d="M1017.1,517.9c-2.5-1.8-3.9-3.1-4-3.1l1.3-1.5c0.3,0.3,29.3,25.8,69.3,21.9l0.2,2
							C1051.7,540.3,1026.5,524.8,1017.1,517.9z"/>
					</g>
				</g>
				<g>
					<g>
						<path class="st6" d="M1039.8,562.2c-9.8-9.6-13.1-19.6-14.1-26.4c-1.1-7.3,0.1-12.3,0.2-12.5l1.9,0.5c0,0.2-4.5,19.4,13.4,37
							L1039.8,562.2z"/>
					</g>
				</g>
			</g>
		</g>
		<g>
			<path class="st0" d="M873.3,265.3c0.9-9.1,4-11.5,7.6-11.2c3.6,0.3,6.2,3.3,5.3,12.4c-1.6,16.6-8.8,23.9-8.8,23.9
				S871.7,282.1,873.3,265.3z"/>
		</g>
		<g>
			<path class="st0" d="M1055.5,450.4c9.6-1.6,12.9,0.9,13.6,4.7c0.6,3.7-1.7,7.3-11.2,8.9c-17.4,3-27-2.4-27-2.4
				S1037.8,453.5,1055.5,450.4z"/>
		</g>
		<g>
			<path class="st0" d="M1026.9,435.5c5.2-7.5,9.1-8.1,12-6.1c3,2,3.8,5.9-1.3,13.4c-9.4,13.7-19.3,16.7-19.3,16.7
				S1017.3,449.4,1026.9,435.5z"/>
		</g>
	</g>
	<g>
		<g>
			<path class="st0" d="M299.3,561.3c0,0-83-232.2-145.2-207.3c-62.2,24.9,90.1,143.3,112.1,211.7L299.3,561.3z"/>
		</g>
		<g>
			<g>
				<path class="st7" d="M260.6,531.5c0,0-96.7-156.4-146.8-127.7c-50,28.6,92.7,90,119.2,136.4L260.6,531.5z"/>
			</g>
			<g>
				<g>
					<path class="st6" d="M245.2,536.5c-17.7-32.4-47.8-61.3-70.1-79.8c-24.1-20.1-44.2-32.6-44.4-32.7l0.8-1.3
						c0.2,0.1,20.4,12.7,44.6,32.8c22.3,18.6,52.6,47.6,70.4,80.2L245.2,536.5z"/>
				</g>
			</g>
		</g>
		<g>
			<g>
				<g>
					<path class="st8" d="M263,614.5c-18.4-2.5-39.9-4.6-62-6.5c-2.1-3.8-2.9-7.1-2.9-7.1c-12.2-15.8-10-13.4-41.6-11.5
						c-22.7,1.4-23-18.5-30.9-33.8c-0.1-0.3-0.3-0.6-0.4-0.8c-3-5.7-7.2-10.6-14.1-13.5c-7.3-3-14.6-7.2-20.9-12.1
						c-0.5-0.4-1-0.8-1.5-1.2c-12.4-10.2-20-23.1-13.8-34.9c0.1-0.3,0.3-0.6,0.5-0.8c1.1-1.9,2.7-3.8,4.6-5.7
						c20.4-19.2,37.7-9.6,58.4-3.9c11.4,3.1,29.7-9.7,46.8-14.9c0.2-0.1,0.5-0.1,0.7-0.2c13.5-3.9,26.3-2.7,34.1,15.4c0,0,0,0,0,0
						c0.2,0.4,0.3,0.7,0.5,1.1c17.6,40,30.1,27.8,60.2,38.3c5.6,2,10.6,4,13.7,7.4C323,562,297.1,599,263,614.5z"/>
				</g>
			</g>
			<g>
				<g>
					<g>
						<path class="st9" d="M269.9,578.2l1.3-1.3c-0.6-0.6-58.9-56.3-196.1-84.7l-0.4,1.8C211.4,522.3,269.3,577.6,269.9,578.2z"/>
					</g>
				</g>
				<g>
					<g>
						<path class="st9" d="M193.9,509.3c21.2-13,26.7-25.4,26.9-25.9l-1.7-0.7c-0.1,0.1-5.6,12.4-26.2,25.1L193.9,509.3z"/>
					</g>
				</g>
				<g>
					<g>
						<path class="st9" d="M187.3,528c6.7-8.1,8.6-21.1,5.5-37.7c-2.4-12.5-6.8-22.7-6.8-22.8l-1.7,0.7c0.2,0.4,17.2,40.1,1.7,58.6
							L187.3,528z"/>
					</g>
				</g>
				<g>
					<g>
						<path class="st9" d="M151.6,518.3c2.5-1.4,3.9-2.4,3.9-2.4l-1-1.5c-0.3,0.2-29.4,20.4-65.6,12.7l-0.4,1.8
							C117.6,535.1,142.3,523.6,151.6,518.3z"/>
					</g>
				</g>
				<g>
					<g>
						<path class="st9" d="M126.2,556.4c10-7.7,14-16.6,15.7-22.6c1.8-6.6,1.2-11.3,1.2-11.5l-1.8,0.2c0,0.2,2.1,18.2-16.2,32.4
							L126.2,556.4z"/>
					</g>
				</g>
			</g>
		</g>
		<g>
			<path class="st0" d="M93.3,454.9c-5.5-3.1-6.1-5.7-4.9-7.9c1.2-2.1,3.8-3,9.3,0.1c9.9,5.6,12.6,12.2,12.6,12.2
				S103.4,460.6,93.3,454.9z"/>
		</g>
	</g>
	<g>
		<g>
			<path class="st10" d="M310.1,265.2c0,0,14.7-0.7,17.1-23.2c2.4-23.2-24.2,0-24.2,0L310.1,265.2z"/>
		</g>
		<g>
			<path class="st10" d="M295.1,191.2c0.9,0.4,15.8,4.4,22.4,26.8c6.6,22.5-15.5,4.8-15.5,4.8L295.1,191.2z"/>
		</g>
		<g>
			<path class="st11" d="M275.5,500.6c0,0,0.2,8.1,5.7,10.3c5.5,2.3,21.3,4.3,15.4,9.5c-3.4,3-19.4,1.1-23.9,1.1
				c-4.5,0-8.8,2-12.1-1.1c-3.7-3.3,0-19.9,0-19.9s3.9,2,7.4,1.9C273,502.4,275.5,500.6,275.5,500.6z"/>
		</g>
		<g>
			<path class="st11" d="M212.8,500.6c0,0,0.2,8.1,5.7,10.3c5.5,2.3,21.3,4.3,15.4,9.5c-3.4,3-19.4,1.1-23.9,1.1
				c-4.5,0-8.8,2-12.1-1.1c-3.7-3.3,0-19.9,0-19.9s3.9,2,7.4,1.9C210.2,502.4,212.8,500.6,212.8,500.6z"/>
		</g>
		<g>
			<path class="st12" d="M316.1,279.4c0,0,1,33.8-9.8,98.6c-7.8,46.8-17,93.9-21.5,116.5c-1.6,8.1-8.4,14-16.5,14.3L264,509
				c-8.7,0.4-15.8-7.1-15.1-16L259.8,340l2.7-50.3L316.1,279.4z"/>
		</g>
		<g>
			<path class="st11" d="M217.4,309.1c0.5,4.1,23.7,3.6,52.2,0c28.5-3.6,50.6-9.8,50.1-13.9c-0.5-4.1-23.5-4.6-51.9-1
				C239.4,297.8,216.9,305,217.4,309.1z"/>
		</g>
		<g>
			<path class="st12" d="M283.4,303.5l-60.8,195.2c-2.5,8.2-9.9,13.8-18.3,13.9l-3.7,0.1c-8.6,0.1-15.2-7.8-13.6-16.5l33.2-183.4
				c0.5-2.2,2.1-3.9,4.2-4.5C235.9,305,284.5,295.4,283.4,303.5z"/>
		</g>
		<g>
			<path class="st8" d="M226.9,196.7c0,0,8.1-22.7,36.9-21.7c28.8,1,50.6,38.9,55.9,120.2c0,0-47.2-10.3-102.4,13.8
				C217.4,309,214.3,229.9,226.9,196.7z"/>
		</g>
		<g>
			<path class="st8" d="M206.7,195.3l20.4,13.1c0,0,52.5,5.2,66.4,2.7c13.9-2.5,16.1-12.8,16.1-12.8s-13.2-18.2-38.5-22.7
				c-2.4-0.4-4.8-0.5-7.3-0.7c-4.3-0.3-8.6-0.2-12.7,0.3C226.2,178,206.7,195.3,206.7,195.3z"/>
		</g>
		<g>
			<path class="st13" d="M256.2,390.8l-1-0.3l13.1-39.7c3-9.2,9.2-16.8,17.5-21.6l0.5,0.9c-8,4.6-14.1,12.1-17,21L256.2,390.8z"/>
		</g>
		<g>
			<g>
				<path class="st14" d="M283.6,169.9l-0.1-0.3c0,0,3.7-0.9,4.7-3.4c0.5-1.3,0.3-2.8-0.8-4.5c-0.5-0.8-0.9-1.5-1.4-2.2
					c-2.9-4.6-3.9-6.3-3.1-10l0.3,0.1c-0.8,3.6,0.2,5.1,3.1,9.7c0.4,0.7,0.9,1.4,1.4,2.2c1.1,1.8,1.4,3.4,0.8,4.8
					C287.5,169,283.7,169.9,283.6,169.9z"/>
			</g>
			<g>
				<path class="st14" d="M283.2,149.5c0,0-1.3,5.8,2.6,11.8c3.8,6-0.3,10.5-5.5,8.1c-5.2-2.3-7.2,4.3-13.8,0.6
					C259.8,166.5,283.2,149.5,283.2,149.5z"/>
			</g>
			<g>
				<path class="st10" d="M252.5,175.1c2.9-0.3,5.4-2.1,6.5-4.7l3.6-8.3l1-2.4l6.1-14.1l-1.1,14.7L268,169l-0.2,2.5
					c-0.1,2,1.3,3.9,3.3,4.2l0,0c1.1,1.8,2.6,5.3-1.9,6.8C264,184.1,255.5,180,252.5,175.1C252.5,175.1,252.5,175.1,252.5,175.1z"/>
			</g>
			<g>
				<path class="st11" d="M262.6,161.8c0,0.1,0,0.2,0,0.2c0.3,4.7,5.4,6.9,5.4,6.9l0,0l0.6-8.8c-1.5-0.6-3.7-1.1-5-0.5
					C262.9,160,262.5,160.6,262.6,161.8z"/>
			</g>
			<g>
				<path class="st10" d="M284.1,147.8c0-9.4-6.2-17-13.8-17c-7.6,0-13.8,7.6-13.8,17c0,9.4,6.2,17,13.8,17
					C278,164.8,284.1,157.2,284.1,147.8z"/>
			</g>
			<g>
				<path class="st10" d="M258.4,150.4c1.6,1.5,3.7,1.6,4.9,0.3c1.1-1.3,0.8-3.6-0.8-5.1c-1.6-1.5-3.7-1.6-4.9-0.3
					C256.5,146.6,256.9,148.9,258.4,150.4z"/>
			</g>
			<g>
				<path class="st15" d="M277.8,158.8c0,0-4.7,0.1-9.4-1.5c0,0-0.4,4.6,4.7,4.9C276,162.4,277.8,158.8,277.8,158.8z"/>
			</g>
			<g>
				<path class="st16" d="M277.8,158.8c0,0-1.1,0.9-3.8,0.9c-2.7,0-5.6-2.5-5.6-2.5S274,158.8,277.8,158.8z"/>
			</g>
			<g>
				<g>
					<path class="st17" d="M271.7,148c0.1,0,0.2-0.1,0.2-0.2c0.1-0.2,0-0.3-0.2-0.4c-0.1,0-2.2-1.1-4.1,0.9c-0.1,0.1-0.1,0.3,0,0.4
						c0.1,0.1,0.3,0.1,0.4,0c1.4-1,3.3-0.8,3.4-0.8C271.6,148,271.6,148,271.7,148z"/>
				</g>
			</g>
			<g>
				<path class="st17" d="M269.2,151.4c0,0.7,0.4,1.4,0.9,1.4c0.5,0,1-0.6,1-1.3c0-0.7-0.4-1.4-0.9-1.4
					C269.7,150.1,269.2,150.7,269.2,151.4z"/>
			</g>
			<g>
				<g>
					<path class="st17" d="M282.9,149.6c0.1,0,0.2,0,0.3-0.1c0.1-0.1,0.1-0.3,0-0.4c-0.1-0.1-1.6-1.9-4.1-0.7
						c-0.2,0.1-0.2,0.3-0.2,0.4c0.1,0.2,0.2,0.2,0.4,0.2c1.7-0.3,3.3,0.5,3.4,0.6C282.8,149.6,282.8,149.6,282.9,149.6z"/>
				</g>
			</g>
			<g>
				<path class="st17" d="M279.3,151.9c-0.3,0.7-0.2,1.4,0.3,1.6c0.5,0.2,1.1-0.2,1.5-0.8c0.3-0.7,0.2-1.4-0.3-1.6
					C280.2,150.8,279.6,151.2,279.3,151.9z"/>
			</g>
			<g>
				<path class="st14" d="M276.2,133.9c0,0-0.3,5.9-7.7,6.9c-7.4,1-12.4,4.1-11.5,9.4c1,5.3,12.9,16.3,4.1,20.6
					c-8.7,4.3-6.9-3.7-16.3-1.8c-9.5,1.8-11.2-10.8-4.7-18.1c6.5-7.3,3.9-26.7,28.3-25.9c24.4,0.9,15.5,20.3,15.5,20.3
					S276.2,140.4,276.2,133.9z"/>
			</g>
			<g>
				<path class="st16" d="M258.7,171.9l-0.1-0.2c1.8-0.7,2.9-1.8,3.2-3.2c1-3.9-3.5-9.8-7.6-15c-1.1-1.4-2.1-2.7-3-4
					c-2.5-3.5-2.7-7.7-0.6-10.9c2.4-3.6,6.9-5.1,11.8-3.9c4.7,1.1,8,0.1,9.9-0.9c2.1-1.1,3-2.5,3-2.5l0.2,0.1
					c0,0.1-3.9,5.6-13.1,3.5c-4.8-1.1-9.3,0.4-11.6,3.9c-2.1,3.2-1.9,7.2,0.6,10.6c0.9,1.2,1.9,2.6,3,3.9c4.1,5.3,8.7,11.2,7.6,15.2
					C261.7,170.1,260.6,171.2,258.7,171.9z"/>
			</g>
			<g>
				<g>
					<path class="st12" d="M281.9,160.8c-0.7,0-1.4-0.2-2.1-0.6c-3-1.8-4.1-7.4-2.5-12.4l0,0c1-3.1,2.8-5.3,4.9-6.1
						c1.2-0.5,2.5-0.3,3.6,0.4c3,1.8,4.1,7.4,2.5,12.4c-1,3.1-2.8,5.4-4.9,6.1C282.9,160.7,282.4,160.8,281.9,160.8z M277.9,148
						c-1.5,4.7-0.5,10,2.2,11.7c0.9,0.6,2,0.7,3,0.3c1.9-0.7,3.6-2.8,4.5-5.7c1.5-4.7,0.5-10-2.2-11.7c-0.9-0.6-2-0.7-3-0.3
						C280.5,142.9,278.8,145.1,277.9,148L277.9,148z"/>
				</g>
			</g>
			<g class="st18">
				<path class="st16" d="M261.4,144.5c-1.1,4.9,0.7,10.1,3.9,11.6c3.3,1.6,6.8-1.1,7.9-5.9c1.1-4.9-0.7-10.1-3.9-11.6
					C266.1,137,262.5,139.7,261.4,144.5z"/>
			</g>
			<g class="st18">
				<path class="st16" d="M277.2,148.2c-1.1,4.9,0.4,10.2,3.3,11.8c2.9,1.6,6.2-1,7.3-5.8c1.1-4.9-0.4-10.2-3.3-11.8
					C281.6,140.7,278.3,143.3,277.2,148.2z"/>
			</g>
			<g>
				<g>
					<path class="st12" d="M267.7,156.8c-0.7,0-1.5-0.2-2.2-0.5c-3.6-1.7-5.6-7.3-4.4-12.5l0,0c0.7-3,2.3-5.3,4.4-6.4
						c1.5-0.7,3-0.7,4.5,0c3.6,1.7,5.6,7.3,4.4,12.5c-0.7,3-2.3,5.3-4.4,6.4C269.2,156.6,268.4,156.8,267.7,156.8z M267.8,137.5
						c-0.7,0-1.4,0.2-2,0.5c-1.9,0.9-3.5,3.2-4.1,6l0,0c-1.1,4.9,0.7,10.2,4,11.8c1.3,0.6,2.6,0.6,3.9,0c1.9-0.9,3.5-3.2,4.1-6
						c1.1-4.9-0.7-10.2-4-11.8C269.1,137.6,268.4,137.5,267.8,137.5z"/>
				</g>
			</g>
			<g>
				<g>
					<path class="st12" d="M277.9,150c-0.1,0-0.3,0-0.4-0.1l0,0c-0.1-0.1-1.5-1.2-4.1-0.7c-0.3,0-0.6-0.1-0.7-0.5
						c-0.1-0.3,0.1-0.6,0.5-0.7c3.1-0.6,5,0.9,5.1,1c0.2,0.2,0.3,0.6,0.1,0.8C278.2,149.9,278,150,277.9,150z"/>
				</g>
			</g>
		</g>
		<g>
			<path class="st11" d="M206.4,195.8c-0.7,2.1,4.6,5.9,11.9,8.6c7.3,2.7,13.8,3.2,14.5,1.2c0.7-2.1-4.6-5.9-11.9-8.6
				C213.6,194.3,207.1,193.7,206.4,195.8z"/>
		</g>
		<g>
			<g>
				<path class="st10" d="M256.5,266.9l0.2-14.9c0-2-1.5-3.7-3.6-3.9c-10.3-0.7-17.6-3.9-21.5-9.6c-5.5-7.8-4.9-19.9-3.4-28.3
					c0.8-4.3-0.6-7.2-5.8-9.9c0,0-4.5-2.5-10-3.4c-2.2-0.4-4.4,0.5-5,2.7c-0.9,3.4-2,8.6-2.6,14.8c-1.3,14.7,1.5,27.5,8.2,37
					c8.2,11.7,21.4,18.1,39.3,19.2C254.6,270.8,256.4,269.1,256.5,266.9z"/>
			</g>
		</g>
		<g class="st5">
			<path class="st19" d="M218.5,247.6c-0.4,0-0.8-0.1-1.2-0.2c-1.1-0.3-2.3-1.1-3.1-2.2c-1.8-2.3-2-5.2-0.4-6.5
				c1.6-1.3,4.4-0.5,6.3,1.8c1.8,2.3,2,5.2,0.4,6.5C219.8,247.4,219.2,247.6,218.5,247.6z M215.6,239c-0.5,0-0.9,0.1-1.3,0.4
				c-1.2,0.9-0.9,3.3,0.5,5.1l0,0c0.7,0.9,1.7,1.6,2.6,1.9c0.9,0.3,1.7,0.2,2.2-0.3c1.2-0.9,0.9-3.3-0.5-5.1
				C218.2,239.7,216.8,239,215.6,239z"/>
		</g>
		<g>
			<path class="st12" d="M240.3,304.7c0,0,56.8-10.9,75.2-5.7l-8.8,13.1l-32.8,1.9L240.3,304.7z"/>
		</g>
		<g>
			<g>
				<path class="st11" d="M263.3,249.5l49,0c1,0,1.9-0.7,2.3-1.6l10.2-30.4c0.5-1.5-0.6-3.1-2.3-3.1l-47.1,0c-2.1,0-4.1,1.4-4.7,3.4
					l-9.6,28.6C260.5,247.9,261.6,249.5,263.3,249.5z"/>
			</g>
			<g>
				<path class="st11" d="M266.3,249.5l49,0c1,0,1.9-0.7,2.3-1.6l10.2-30.4c0.5-1.5-0.6-3.1-2.3-3.1l-47.1,0c-2.1,0-4.1,1.4-4.7,3.4
					l-9.6,28.6C263.6,247.9,264.7,249.5,266.3,249.5z"/>
			</g>
			<g>
				<path class="st20" d="M300.7,231c0-1.2-1.3-1.6-2.5-1.6c-1.2,0-3.1,1.3-3,2.9c0,1.7,1.4,2,2.5,2
					C298.8,234.2,300.7,232.4,300.7,231z"/>
			</g>
			<g>
				<path class="st21" d="M269.8,229.7l-0.3-0.1c0.1-0.4,2.4-9.1,4-12c1.6-2.9,3.6-3.4,3.6-3.5l0.1,0.3c0,0-1.9,0.6-3.4,3.3
					C272.3,220.6,269.9,229.7,269.8,229.7z"/>
			</g>
			<g>
				<polygon class="st21" points="264.9,244.5 264.6,244.4 268.4,233 268.7,233.1 				"/>
			</g>
		</g>
		<g>
			<g>
				<path class="st10" d="M327.4,238.6c0,0,0.8,6.4-4.6,7c-6.9,0.8-16.3-5.4-12-5.9c3.9-0.5,9.5,0.2,9.5,0.2s-14.4-2-13.1-5.1
					c1.3-3.1,13.7-1.1,13.7-1.1s-13.9-3.4-11.7-5.8c2.1-2.4,13.4-0.7,13.4-0.7s-13.7-2.6-11.1-5.3c2.6-2.8,9.4,0.1,12.6,0.6
					c3,0.5,3.7,2.7,3.2,5.7c0,0,1.1,3.4,0.3,5.3c-0.3,0.7,0.3,1.6,0.3,2.1C327.8,236.7,327.4,238.6,327.4,238.6z"/>
			</g>
		</g>
		<g>
			<g>
				<g>
					<path class="st10" d="M249.4,247.1c0,0,3.6-11,9.8-13.7c6.2-2.7,16.2-1.4,12.7,1.1c-3.5,2.5-8.8,4.4-8.8,4.4s11.6-3.6,11.3-0.5
						c-0.3,3.1-10.5,6.1-10.5,6.1s14.2-3.2,12.9-0.4c-1.3,2.8-12,5.2-12,5.2s13.3-2.4,11.8,0.8c-1.5,3.2-11,1.9-11.3,5
						c-0.3,3.1-2.7,15.2-11.4,15.3L249.4,247.1z"/>
				</g>
			</g>
			<g>
				<path class="st22" d="M258.9,241.5l-0.5-0.2c1-2,4.4-2.6,4.6-2.6l0.1,0.5C263.1,239.2,259.7,239.7,258.9,241.5z"/>
			</g>
			<g>
				<path class="st22" d="M258.8,247.6l-0.4-0.3c1.9-2.5,5.2-3,5.4-3l0.1,0.5C263.9,244.8,260.6,245.3,258.8,247.6z"/>
			</g>
			<g>
				<path class="st22" d="M260.1,252.1l-0.5-0.2c0.8-2.2,4.9-2.9,5.1-2.9l0.1,0.5C264.7,249.6,260.8,250.2,260.1,252.1z"/>
			</g>
		</g>
		<g>
			<path class="st22" d="M322.1,246c-2.1,0-4.4-0.6-4.5-0.6l0.1-0.5c1.5,0.4,5.6,1.1,6.8,0.1l0.3,0.4
				C324.2,245.8,323.2,246,322.1,246z"/>
		</g>
	</g>
	<g>
		<g>
			<g>
				<path class="st8" d="M909.7,490.2l-146.5,0.3l-166.8,4.2l-0.4,12.6l161.3-7c16.2,0.6,28.9,15.4,28.2,33.2l0,0
					c-0.6,17.8-14.3,31.7-30.5,31.1L594.2,559l-0.3,9.3l313.6,13.8c21,0.7,38.8-20.4,39.5-43.4l0,0
					C947.8,515.6,930.7,490.9,909.7,490.2z"/>
			</g>
			<g>
				<path class="st8" d="M799.9,533.6L799.9,533.6c0.8-23.1-15.6-42.3-36.7-43.1l-166.8,4.2l-0.4,12.6l161.3-7
					c16.2,0.6,28.9,15.4,28.2,33.2l0,0c-0.6,17.8-14.3,31.7-30.5,31.1L594.2,559l-0.3,15l166.5,0
					C781.4,574.8,799.1,556.7,799.9,533.6z"/>
			</g>
			<g>
				<path class="st23" d="M757.3,500.3l-161.3,7l0,0c14.6,2.3,18.9,17.1,20.9,25c4.1,16-8,25.2-22.7,26.5l0,0.2l160.9,5.5
					c16.2,0.6,29.9-13.4,30.5-31.1l0,0C786.2,515.7,773.5,500.8,757.3,500.3z"/>
			</g>
			<g>
				
					<rect x="705.1" y="492.9" transform="matrix(2.319281e-02 -0.9997 0.9997 2.319281e-02 148.1429 1234.009)" class="st11" width="0.9" height="96.5"/>
			</g>
			<g>
				<g>
					<path class="st24" d="M789.6,559.5c-0.5,0-0.9-0.2-1.2-0.6c-0.4-0.6-0.3-1.3,0.4-1.7c0.1-0.1,10.5-6.3,12.2-23.8
						c1.7-17.4-12.4-24.1-12.5-24.1c-0.7-0.3-1-1.1-0.6-1.7c0.4-0.6,1.2-0.8,1.9-0.5c0.6,0.3,15.9,7.5,14,26.5
						c-1.8,18.8-13,25.4-13.5,25.7C790.2,559.4,789.9,559.5,789.6,559.5z"/>
				</g>
			</g>
			<g>
				
					<rect x="644.7" y="530.9" transform="matrix(0.9999 -1.555179e-02 1.555179e-02 0.9999 -8.1804 10.6505)" class="st11" width="71.9" height="0.9"/>
			</g>
			<g>
				<g>
					<path class="st24" d="M832.2,556.4C832.2,556.4,832.2,556.4,832.2,556.4l-25.9-0.9c-0.5,0-1-0.3-1.2-0.7c-0.2-0.4-0.2-1,0-1.4
						c0-0.1,4.5-7.8,7.1-18.2c2.5-10-4.3-20.4-4.4-20.5c-0.3-0.4-0.3-1-0.1-1.5c0.3-0.5,0.7-0.7,1.3-0.7l24.5,0.8
						c0.5,0,0.9,0.2,1.1,0.6c15.3,21.9-1.3,41.8-1.5,42C833.1,556.2,832.7,556.4,832.2,556.4z M808.8,552.7l22.8,0.8
						c2.4-3.1,13.5-19.2,1.3-37.3l-21.2-0.7c2,3.9,5.5,12.2,3.4,20.5C813.2,543.5,810.4,549.7,808.8,552.7z"/>
				</g>
			</g>
		</g>
		<g>
			<g>
				<path class="st21" d="M595.6,572.2l147.3,0.2l166.5,10.1l0,12.6l-161-12.7c-16.2,0-29.4,14.4-29.4,32.1l0,0
					c0,17.8,13.1,32.2,29.3,32.2l161,0.2l0,9.3l-313.8-0.3c-21.1,0-38.1-18.7-38.1-41.8l0,0C557.4,590.8,574.5,572.2,595.6,572.2z"
					/>
			</g>
			<g>
				<path class="st21" d="M704.7,614.1L704.7,614.1c0-23.1,17.1-41.8,38.2-41.7l166.5,10.1l0,12.6l-161-12.7
					c-16.2,0-29.4,14.4-29.4,32.1l0,0c0,17.8,13.1,32.2,29.3,32.2l161,0.2l0,9.3l-166.6-0.2C721.7,655.9,704.6,637.1,704.7,614.1z"
					/>
			</g>
			<g>
				<path class="st23" d="M748.4,582.3l161,12.7l0,0c-14.6,1.8-19.5,16.5-21.8,24.3c-4.6,15.8,7.1,25.5,21.8,27.3l0,0.2l-161-0.2
					c-16.2,0-29.4-14.4-29.3-32.2l0,0C719,596.7,732.2,582.3,748.4,582.3z"/>
			</g>
			<g>
				
					<rect x="821.3" y="562" transform="matrix(1.068258e-03 -1 1 1.068258e-03 193.8665 1447.9648)" class="st11" width="0.9" height="129.9"/>
			</g>
			<g>
				
					<rect x="837.3" y="566.8" transform="matrix(5.107339e-02 -0.9987 0.9987 5.107339e-02 179.0331 1421.8461)" class="st11" width="0.9" height="99.8"/>
			</g>
		</g>
		<g>
			<g>
				<path class="st14" d="M591.7,411.4l150-3l169.9,6.7l0.3,12.8l-164.3-9.5c-16.5,0.3-29.6,15.3-29.3,33.4v0
					c0.4,18.1,14.1,32.5,30.6,32.2l164-3.3l0.2,9.5l-319.6,6.4c-21.5,0.4-39.2-18.3-39.7-41.8l0,0
					C553.3,431.3,570.3,411.9,591.7,411.4z"/>
			</g>
			<g>
				<path class="st14" d="M703.7,451.7L703.7,451.7c-0.5-23.5,16.5-42.9,38-43.3l169.9,6.7l0.3,12.8l-164.3-9.5
					c-16.5,0.3-29.6,15.3-29.3,33.4v0c0.4,18.1,14.1,32.5,30.6,32.2l164-3.3l0.2,9.5l-169.7,3.4C722,493.9,704.2,475.2,703.7,451.7z
					"/>
			</g>
			<g>
				<path class="st23" d="M747.6,418.4l164.3,9.5l0,0c-14.9,2.2-19.5,17.2-21.7,25.2c-4.4,16.2,7.8,25.8,22.8,27.4l0,0.2l-164,3.3
					c-16.5,0.3-30.2-14.1-30.6-32.2l0,0C717.9,433.7,731.1,418.8,747.6,418.4z"/>
			</g>
			<g>
				
					<rect x="757" y="461.9" transform="matrix(0.9998 -1.932937e-02 1.932937e-02 0.9998 -8.7829 15.9984)" class="st11" width="132.4" height="0.9"/>
			</g>
			<g>
				<g>
					<path class="st25" d="M707.6,479.2c-0.3,0-0.5-0.1-0.7-0.2c-0.4-0.3-10.5-7.4-11.9-27.1c-1.4-19.9,12.5-27.3,13.1-27.6
						c0.6-0.3,1.4-0.1,1.8,0.6c0.3,0.6,0.1,1.4-0.6,1.8c-0.5,0.3-13,7-11.7,25.1c1.3,18.4,10.6,25,10.7,25.1
						c0.6,0.4,0.8,1.2,0.3,1.8C708.4,479,708,479.2,707.6,479.2z"/>
				</g>
			</g>
			<g>
				
					<rect x="838.9" y="400.7" transform="matrix(2.993398e-02 -0.9996 0.9996 2.993398e-02 362.8292 1276.99)" class="st11" width="0.9" height="101.7"/>
			</g>
			<g>
				<g>
					<path class="st25" d="M673.4,472.2c-3.5,0-6.8-1.9-8.4-5c-3-5.6-7-16.8-0.5-29.2c1.6-3,4.7-4.9,8.2-5l0,0l5.3-0.1
						c2.9-0.1,5.7,1.2,7.6,3.5c1.9,2.3,2.5,5.2,1.9,8c-0.7,3.2-0.7,6.1-0.1,8.8c0.5,2.1,1.1,4.2,1.8,6.2c1,2.9,0.5,6-1.2,8.5
						c-1.8,2.5-4.5,4-7.6,4.1l-6.7,0.1C673.5,472.2,673.5,472.2,673.4,472.2z M672.7,435.6c-2.5,0.1-4.8,1.4-5.9,3.5
						c-5.9,11.3-2.2,21.6,0.5,26.7c1.2,2.3,3.6,3.7,6.2,3.7l6.7-0.1c2.2,0,4.3-1.1,5.5-2.9c1.3-1.8,1.6-4,0.9-6.1
						c-0.7-2.2-1.4-4.3-1.9-6.5c-0.7-3.1-0.7-6.4,0.1-10c0.5-2.1,0-4.2-1.4-5.8c-1.4-1.7-3.4-2.6-5.5-2.5L672.7,435.6z"/>
				</g>
			</g>
		</g>
	</g>
	<g>
		<g>
			<path class="st14" d="M470.1,522.9l-137.9-4.1L176,522.4l-0.4,10.6l151.1-6c15.2,0.5,27.1,12.9,26.5,27.9l0,0
				c-0.6,15-13.3,26.7-28.5,26.2L174,576.6l-0.3,7.8l293.8,8.8c19.7,0.6,36.3-14.7,37-34.1l0,0C505.2,539.7,489.8,523.5,470.1,522.9
				z"/>
		</g>
		<g>
			<path class="st14" d="M366.6,555L366.6,555c0.7-19.4-14.7-35.6-34.4-36.2L176,522.4l-0.4,10.6l151.1-6
				c15.2,0.5,27.1,12.9,26.5,27.9l0,0c-0.6,15-13.3,26.7-28.5,26.2L174,576.6l-0.3,7.8l155.9,4.7C349.3,589.7,365.9,574.4,366.6,555
				z"/>
		</g>
		<g>
			<path class="st23" d="M326.7,527l-151.1,6l0,0c13.6,2,17.8,14.4,19.6,21.1c3.8,13.5-7.5,21.2-21.3,22.4l0,0.2l150.7,4.5
				c15.2,0.5,28-11.3,28.5-26.2l0,0C353.8,539.9,341.9,527.5,326.7,527z"/>
		</g>
		<g>
			
				<rect x="256.3" y="501.6" transform="matrix(3.001809e-02 -0.9995 0.9995 3.001809e-02 -313.2386 802.1088)" class="st11" width="0.8" height="121.7"/>
		</g>
		<g>
			
				<rect x="195.2" y="553" transform="matrix(0.9999 -1.519222e-02 1.519222e-02 0.9999 -8.379 3.74)" class="st11" width="93.5" height="0.8"/>
		</g>
	</g>
	<g>
		<g>
			<path class="st12" d="M174.1,585.1h124l140.2,8.3V604l-135.5-10.6c-13.7,0-24.7,12.1-24.7,27.1l0,0c0,15,11.1,27.1,24.7,27.1
				h135.5v7.8H174.1c-17.7,0-32.1-15.7-32.1-35.2l0,0C142,600.9,156.4,585.1,174.1,585.1z"/>
		</g>
		<g>
			<path class="st12" d="M266,620.3L266,620.3c0-19.4,14.4-35.2,32.1-35.2l143.8,7.3l-3.6,11.6l-135.5-10.6
				c-13.7,0-24.7,12.1-24.7,27.1l0,0c0,15,11.1,27.1,24.7,27.1h135.5v7.8H298.1C280.3,655.4,266,639.7,266,620.3z"/>
		</g>
		<g>
			<path class="st23" d="M302.7,593.5L438.3,604l0,0c-12.3,1.6-16.4,13.9-18.3,20.5c-3.9,13.3,6,21.4,18.3,23v0.2H302.7
				c-13.7,0-24.7-12.1-24.7-27.1l0,0C278,605.6,289.1,593.5,302.7,593.5z"/>
		</g>
		<g>
			<rect x="309.8" y="630.6" class="st11" width="109.4" height="0.7"/>
		</g>
		<g>
			<g>
				<path class="st26" d="M205.3,642c-0.4-0.3-8.6-6.3-9.5-22.8c-0.8-16.7,10.9-22.6,11.4-22.8l1,2l-0.5-1l0.5,1
					c-0.4,0.2-11,5.6-10.2,20.8c0.8,15.4,8.5,21.1,8.5,21.1L205.3,642z"/>
			</g>
		</g>
		<g>
			
				<rect x="377.6" y="580.4" transform="matrix(5.000617e-02 -0.9987 0.9987 5.000617e-02 -262.5253 968.7536)" class="st11" width="0.7" height="84"/>
		</g>
		<g>
			<g>
				<path class="st26" d="M171.8,598.7h6.7c5.8,0,10.1,5.5,8.6,11.2c-0.8,3.3-1.2,7.1-0.4,10.9c0.6,2.8,1.3,5.3,2.1,7.7
					c1.8,5.7-2.5,11.6-8.5,11.6h-8.3c-3.3,0-6.4-1.9-7.9-4.8c-3.3-6.4-7.3-18.6,0-31.8C165.5,600.5,168.5,598.7,171.8,598.7z"/>
			</g>
		</g>
	</g>
	<g>
		<g>
			<path class="st12" d="M904.9,415.7L506,411.6c-8.5-0.1-15.4-6.3-15.4-13.9V180.3c0-7.6,6.8-13.8,15.3-13.9l393.7-5.4
				c8.6-0.1,15.6,6,15.8,13.6l5.1,226.9C920.8,409.4,913.7,415.8,904.9,415.7z"/>
		</g>
		<g>
			<path class="st27" d="M905,185.5V390c0,4.4-3.5,7.9-7.9,7.9H514c-4.4,0-7.9-3.5-7.9-7.9V185.5c0-4.4,3.5-7.9,7.9-7.9h383.2
				C901.5,177.6,905,181.1,905,185.5z"/>
		</g>
		<g>
			<g>
				<path class="st11" d="M905,372.7v6.5c0,4-3.2,7.2-7.2,7.2H668.3c-0.5-0.1-1-0.3-1.5-0.5c16.3-15.9,47.8-40.8,90.7-49.2
					c3.2-0.6,6.4-1.2,9.7-1.6c2.9-0.4,5.8-0.7,8.8-0.9c0.2,0,0.3,0,0.5,0c9.1-0.6,18.3-0.3,27.3,0.6c1.8,0.2,3.6,0.4,5.4,0.6
					c2.7,0.4,5.3,0.7,7.9,1.1C860.1,343.5,887.6,358,905,372.7z"/>
			</g>
			<g>
				<path class="st10" d="M805.6,345.7c4.9-7.5-2.1-8.1-4.3-15.7l-6.8-23.4l-2-6.8l-11.7-40.1l-2.3,39.6l-1.4,23.8l-0.4,7.5
					c-0.3,5.1-1.7,5.8-5.6,10.2c-1.6,1.8-7.4,9,0.1,12.6C777.9,356.6,799.4,355.2,805.6,345.7z"/>
			</g>
			<g>
				<path class="st11" d="M803.3,297.6c0,0,39-13.6,33.2-42.7c-5.8-29-35.6,26.3-35.6,26.3l-1.6,15.2L803.3,297.6z"/>
			</g>
			<g>
				<path class="st11" d="M794.5,305.9c0,0.2-0.1,0.4-0.1,0.6c-2.6,12.5-17.2,16.6-17.2,16.6l-0.1-0.1l1.4-23.8
					c4.4-1,10.7-1.7,14,0.4C794.2,300.9,795.1,302.8,794.5,305.9z"/>
			</g>
			<g>
				<path class="st10" d="M743.2,265.7c3-23.1,21-39.7,40.1-37.2c19.1,2.5,32.2,23.3,29.2,46.3c-3,23.1-21,39.7-40.1,37.2
					C753.2,309.5,740.1,288.8,743.2,265.7z"/>
			</g>
			<g>
				<path class="st11" d="M808,269.2c0,0-11.5,2.3-16.4-6.3c-4.9-8.6-7.8-15.9-27.7-15.2c-20,0.8-36.2-11-35.3-21.6
					c0.8-10.6,11.8-14.1,21.8-9c10,5.1,0.1-6.1,11.6-12.5c11.5-6.4,25.1,11.7,36.2,11c11.1-0.7,44.9,9.6,38.4,39.3L808,269.2z"/>
			</g>
			<g>
				<path class="st10" d="M812.4,277.8c-3.5,2.3-8,1.5-10.1-1.7c-2-3.2-0.8-7.6,2.8-9.8c3.5-2.3,8-1.5,10.1,1.7
					C817.2,271.1,815.9,275.5,812.4,277.8z"/>
			</g>
			<g>
				<path class="st16" d="M754.5,231.9c-3.6,0-6.2-0.7-8-2.1c-3-2.4-3.2-4.5-2.4-5.7c1-1.4,3.6-1.9,6.4-0.3c4.8,2.8,8.3,2.3,8.3,2.3
					l0.1,0.5c-0.1,0-3.7,0.5-8.6-2.4c-2.6-1.5-5-1.1-5.8,0.2c-0.7,1-0.5,2.9,2.3,5.1c5.7,4.6,21.2-0.3,21.3-0.3l0.1,0.5
					c0,0-4,1.3-8.6,1.9C757.8,231.8,756.1,231.9,754.5,231.9z"/>
			</g>
			<g>
				<path class="st16" d="M818,224.8c-4.1-2.9-9.1-2.6-14.9-2.3c-2.9,0.2-6,0.3-9.3,0.2c-10-0.5-18.2-10-18.5-10.9l0.5-0.1
					c0.2,0.6,8.1,10.1,18.1,10.6c3.3,0.2,6.3,0,9.2-0.2c5.9-0.3,11-0.6,15.2,2.4L818,224.8z"/>
			</g>
			<g>
				<path class="st16" d="M829.5,249.5C829.5,249.5,829.5,249.5,829.5,249.5c-1.6-0.1-3.9-4.5-4-6.8c0-1.2,0.5-1.4,0.9-1.4
					c2.8-0.4,4.1,6.4,4.2,6.7l0,0l0,0C830.4,249.2,829.9,249.5,829.5,249.5z M826.6,241.7c-0.1,0-0.1,0-0.2,0c-0.1,0-0.5,0.1-0.5,1
					c0.1,2.1,2.4,6.3,3.5,6.3c0.3,0,0.5-0.5,0.6-1C829.7,246.2,828.5,241.7,826.6,241.7z"/>
			</g>
			<g>
				<g>
					<path class="st17" d="M771.3,268.5c-0.2-0.1-0.3-0.3-0.3-0.5c0-0.4,0.3-0.7,0.6-0.8c0.2,0,5.5-1,8.2,4.6c0.2,0.4,0,0.8-0.3,1
						c-0.4,0.2-0.7,0-1-0.3c-2.5-3-6.6-3.9-6.8-3.9C771.5,268.6,771.4,268.5,771.3,268.5z"/>
				</g>
			</g>
			<g>
				<path class="st17" d="M774.3,277.6c-0.4,1.6-1.8,2.7-2.9,2.4c-1.2-0.3-1.8-1.9-1.3-3.5c0.4-1.6,1.8-2.7,2.9-2.4
					C774.2,274.3,774.8,275.9,774.3,277.6z"/>
			</g>
			<g>
				<g>
					<path class="st17" d="M745.1,266.4c-0.2,0-0.3-0.2-0.4-0.4c-0.1-0.3,0-0.8,0.3-1c0.2-0.1,3.8-3.1,7.2,0.8c0.2,0.2,0.2,0.7,0,1
						c-0.2,0.3-0.5,0.3-0.8,0.1c-2.6-1.7-5.9-0.8-6-0.7C745.3,266.4,745.2,266.4,745.1,266.4z"/>
				</g>
			</g>
			<g>
				<path class="st17" d="M751.5,273.6c0.2,1.7-0.6,3.2-1.8,3.3c-1.2,0.2-2.4-1.1-2.6-2.8c-0.2-1.7,0.6-3.2,1.8-3.3
					C750.1,270.7,751.3,271.9,751.5,273.6z"/>
			</g>
			<g>
				<g>
					<path class="st13" d="M770.2,299.9c-6.3,0-11.2-3.8-11.3-3.9c-0.2-0.2-0.2-0.5-0.1-0.7c0.2-0.2,0.5-0.2,0.7-0.1
						c0.4,0.3,9.7,7.6,19,0.9c0.2-0.2,0.5-0.1,0.7,0.1c0.2,0.2,0.1,0.5-0.1,0.7C776.1,299.1,773,299.9,770.2,299.9z"/>
				</g>
				<g>
					<path class="st13" d="M779.6,299C779.5,299,779.5,299,779.6,299c-0.3,0-0.5-0.3-0.5-0.5c0.1-0.7-0.1-1.9-1.4-3.7
						c0-0.1-0.1-0.1-0.1-0.1c-0.1-0.2-0.1-0.5,0.2-0.7c0.2-0.1,0.5-0.1,0.7,0.2c0,0,0,0,0.1,0.1c1.2,1.6,1.7,3.1,1.6,4.4
						C780,298.8,779.8,299,779.6,299z"/>
				</g>
			</g>
			<g>
				<path class="st16" d="M741.9,294.6c-1.8,0-3.5-0.5-5.2-1.5c-4.5-2.8-7.6-9.1-8.4-16.7c-1.3-12.5,4.1-25,11.9-27.9
					c2.9-1.1,5.9-0.7,8.6,0.9c4.5,2.8,7.6,9.1,8.4,16.7l0,0c1.3,12.5-4.1,25-11.9,27.9C744.2,294.4,743.1,294.6,741.9,294.6z
					 M743.6,249.3c-0.9,0-1.9,0.2-2.9,0.5c-7.3,2.7-12.2,14.5-11,26.3c0.7,7.2,3.6,13.1,7.8,15.6c2.3,1.4,4.8,1.7,7.3,0.8
					c7.3-2.7,12.2-14.5,11-26.3l0,0c-0.7-7.2-3.6-13.1-7.8-15.6C746.6,249.8,745.1,249.3,743.6,249.3z"/>
			</g>
			<g class="st18">
				<path class="st16" d="M796.2,266.3c0.2,11.9-6.5,23.3-15,25.4c-8.5,2.1-15.5-5.9-15.8-17.8c-0.2-11.9,6.5-23.3,15-25.4
					C788.9,246.4,796,254.4,796.2,266.3z"/>
			</g>
			<g class="st18">
				<path class="st16" d="M757.3,267.1c0.2,12-5.8,23.7-13.5,26.1c-7.7,2.4-14.1-5.3-14.3-17.3c-0.2-12,5.8-23.7,13.5-26.1
					C750.7,247.4,757.1,255.1,757.3,267.1z"/>
			</g>
			<g>
				<path class="st16" d="M777.9,292.2c-2.7,0-5.2-0.9-7.5-2.6c-4.5-3.4-7.1-9.7-7.3-17.1c-0.3-12.8,7.1-24.9,16.4-27.2
					c3.8-0.9,7.4-0.1,10.5,2.3c4.5,3.4,7.1,9.7,7.3,17.1c0.3,12.8-7.1,24.9-16.4,27.2C779.9,292.1,778.9,292.2,777.9,292.2z
					 M782.5,246.4c-0.9,0-1.7,0.1-2.6,0.3c-8.7,2.1-15.5,13.6-15.3,25.7c0.2,6.9,2.7,12.8,6.7,16c2.7,2.1,5.9,2.8,9.2,2
					c8.7-2.1,15.5-13.6,15.3-25.7c-0.2-6.9-2.7-12.8-6.7-16C787.1,247.2,784.9,246.4,782.5,246.4z"/>
			</g>
			<g>
				<path class="st16" d="M766.4,271.4c-0.2,0-0.4,0-0.5-0.1c-5.8-2.5-9.9-0.3-10-0.3c-0.7,0.4-1.5,0.1-1.9-0.6
					c-0.4-0.7-0.1-1.5,0.6-1.9c0.2-0.1,5.3-2.8,12.3,0.2c0.7,0.3,1,1.1,0.7,1.8C767.4,271,766.9,271.4,766.4,271.4z"/>
			</g>
			<g>
				<path class="st11" d="M836.7,255.2l-0.3-0.7c5.6-2.8,4.2-9,4.2-9.1l0.8-0.2C841.3,245.3,842.9,252.1,836.7,255.2z"/>
			</g>
			<g>
				<path class="st11" d="M840.8,263.5c0,0-3.1-4.7-6.3-5.4l0.2-0.8c3.6,0.8,6.7,5.5,6.8,5.7L840.8,263.5z"/>
			</g>
		</g>
		<g class="st5">
			<path class="st28" d="M671.7,294.9h-94.5c-6.6,0-12-5.4-12-12v-49.1c0-6.6,5.4-12,12-12h94.5c6.6,0,12,5.4,12,12v49.1
				C683.7,289.5,678.3,294.9,671.7,294.9z"/>
		</g>
		<g>
			<path class="st28" d="M647.9,274.7h-94.5c-6.6,0-12-5.4-12-12v-49.1c0-6.6,5.4-12,12-12h94.5c6.6,0,12,5.4,12,12v49.1
				C659.9,269.3,654.5,274.7,647.9,274.7z"/>
		</g>
		<g>
			<g>
				<g>
					<g>
						<path class="st29" d="M653.3,362.1C653.3,362.1,653.3,362.1,653.3,362.1c-0.3,1.9-0.5,4.1-0.8,6.5c0,0,0,0,0,0
							c-0.5,4.8-0.8,10.7-0.9,17.3h-59.8c0.3-18,2.1-30.3,2.2-31.1v0l4.9,0.6l23.8,3l0.9,0.1l1.2,0.1l26.7,3.3L653.3,362.1
							L653.3,362.1z"/>
					</g>
				</g>
				<g>
					<path class="st29" d="M593.9,354.7c0,0,0.8-38.1,6.7-44.6c5.9-6.4,50.4-1.5,53.8,7.7c3.3,9.2-1.1,44.2-1.1,44.2L593.9,354.7z"
						/>
				</g>
				<g>
					<path class="st19" d="M620.1,373.4c-0.3,0-0.6-0.2-0.6-0.5c0-0.2-0.2-4.1,0.6-8.3c1-5.9,3.3-9.3,6.6-10.3
						c12.4-3.7,19.3-11,19.4-11.1c0.2-0.2,0.6-0.2,0.8,0c0.2,0.2,0.2,0.6,0,0.8c-0.3,0.3-7.2,7.6-19.9,11.4
						c-7,2.1-6.4,17.4-6.4,17.5C620.7,373.1,620.4,373.3,620.1,373.4C620.1,373.4,620.1,373.4,620.1,373.4z"/>
				</g>
			</g>
			<g>
				<path class="st29" d="M655.6,326.5c0,0,1.8-59-4.3-60.1c-8.9-1.5-12.5,23-14,40.8C635.8,325,655.6,326.5,655.6,326.5z"/>
			</g>
			<g>
				<g>
					<path class="st10" d="M634,293.3c3.2,0.6,6.5-0.4,8,17.6c0.8,9,1.4,37.4-7.1,36c-8.5-1.4-11.4-33.6-11.4-33.6s0.2,36.9-7.3,33
						c-7.4-3.8-10.3-33-10.3-33s2.2,35.9-6.3,31.3c-8.5-4.7-11.1-23.8-10.4-32c0.9-10.3,8.4-10.9,16.4-11.4c0,0,7.9-4.9,13.1-4
						C620.8,297.5,627.7,292.2,634,293.3z"/>
				</g>
			</g>
			<g>
				<path class="st29" d="M652.5,368.5c0,0,8.4-6.9,14-20.4c5.6-13.5,18.1-26.7,14.5-32c-3.6-5.3-21.4,6.6-27.2,18.5
					C648,346.6,652.5,368.5,652.5,368.5z"/>
			</g>
		</g>
		<g>
			<path class="st28" d="M905,378.3V390c0,4.4-3.5,7.9-7.9,7.9H514c-4.4,0-7.9-3.5-7.9-7.9v-7.8C552.5,381.5,814.4,379.1,905,378.3z
				"/>
		</g>
		<g>
			<g>
				
					<rect x="531.2" y="387.5" transform="matrix(1 -5.514819e-03 5.514819e-03 1 -2.1349 3.8861)" class="st27" width="344.9" height="3.1"/>
			</g>
		</g>
		<g>
			<g>
				<polygon class="st14" points="704.4,387.5 704,390.6 531.2,391.5 531.1,388.5 				"/>
			</g>
		</g>
		<g>
			<path class="st14" d="M698.4,389.1c0-2.8,2.3-5.1,5.1-5.1s5.1,2.3,5.1,5.1c0,2.8-2.3,5.1-5.1,5.1S698.4,391.9,698.4,389.1z"/>
		</g>
		<g>
			<g>
				<path class="st30" d="M852.7,191.6c0-2.1,1.7-3.8,3.8-3.8c2.1,0,3.8,1.7,3.8,3.8c0,2.1-1.7,3.8-3.8,3.8
					C854.4,195.4,852.7,193.7,852.7,191.6z"/>
			</g>
			<g>
				<path class="st12" d="M866.5,191.6c0-2.1,1.7-3.8,3.8-3.8s3.8,1.7,3.8,3.8c0,2.1-1.7,3.8-3.8,3.8S866.5,193.7,866.5,191.6z"/>
			</g>
			<g>
				<path class="st14" d="M880.6,191.6c0-2.1,1.7-3.8,3.8-3.8c2.1,0,3.8,1.7,3.8,3.8c0,2.1-1.7,3.8-3.8,3.8
					C882.3,195.4,880.6,193.7,880.6,191.6z"/>
			</g>
		</g>
		<g>
			<g>
				<path class="st14" d="M605.8,250.3l3.9-9.2c0.5-1.3,2.1-1.7,3.2-0.9l5.2,3.8c1.2,0.9,2.9,0.3,3.3-1.1l3-9.7
					c0.4-1.2,1.6-1.8,2.8-1.4l2.9,1c0.9,0.3,1.9,0,2.4-0.8l0.5-0.6c1.2-1.7,3.9-0.8,3.9,1.3v18.5c0,1.2-1,2.2-2.2,2.2h-27
					C606.3,253.3,605.2,251.7,605.8,250.3z"/>
			</g>
			<g>
				<path class="st20" d="M638.7,259.4C638.7,259.4,638.7,259.4,638.7,259.4l-80.7-1.3c-2.1,0-3.8-1.7-4-3.8l-1.6-23.4
					c-0.1-1.1,0.3-2.2,1.1-3c0.8-0.8,1.8-1.3,2.9-1.3l82.3-1.6c1.1,0,2.1,0.4,2.9,1.2c0.8,0.8,1.2,1.8,1.2,2.9v26.3
					c0,1.1-0.4,2.1-1.2,2.9C640.8,259,639.8,259.4,638.7,259.4z M638.7,225.8C638.7,225.8,638.7,225.8,638.7,225.8l-82.3,1.6
					c-0.9,0-1.7,0.4-2.3,1.1c-0.6,0.7-0.9,1.5-0.8,2.4l1.6,23.4c0.1,1.7,1.5,3,3.2,3l80.6,1.3c0.9,0,1.7-0.3,2.3-0.9
					c0.6-0.6,1-1.4,1-2.3V229c0-0.9-0.3-1.7-1-2.3C640.4,226.1,639.6,225.8,638.7,225.8z"/>
			</g>
			<g>
				<path class="st20" d="M592.4,244.5h-29.1c-0.6,0-1.6-0.7-1.7-1.3c-0.2-1.3,1.1-1.7,1.7-1.7l29.1,0.6c0.6,0,1.2,0.5,1.2,1.2l0,0
					C593.6,244,593.1,244.5,592.4,244.5z"/>
			</g>
			<g>
				<path class="st20" d="M584.9,239h-22c-0.5,0-1.2-0.5-1.3-1c-0.1-1,0.8-1.3,1.3-1.3l22,0.5c0.5,0,0.9,0.4,0.9,0.9l0,0
					C585.7,238.6,585.3,239,584.9,239z"/>
			</g>
			<g>
				<path class="st20" d="M584.9,250h-22c-0.5,0-1.2-0.5-1.3-1c-0.1-1,0.8-1.3,1.3-1.3l22,0.5c0.5,0,0.9,0.4,0.9,0.9l0,0
					C585.7,249.6,585.3,250,584.9,250z"/>
			</g>
			<g>
				<path class="st20" d="M584.6,212.9h-29.1c-0.6,0-1.6-0.7-1.7-1.3c-0.2-1.3,1.1-1.7,1.7-1.7l29.1,0.6c0.6,0,1.2,0.5,1.2,1.2l0,0
					C585.8,212.3,585.2,212.9,584.6,212.9z"/>
			</g>
			<g>
				<path class="st20" d="M577,218.4h-22c-0.5,0-1.2-0.5-1.3-1c-0.1-1,0.8-1.3,1.3-1.3l22,0.5c0.5,0,0.9,0.4,0.9,0.9l0,0
					C577.9,218,577.5,218.4,577,218.4z"/>
			</g>
		</g>
	</g>
	<g>
		<g>
			<path class="st10" d="M638.5,557.7c2.1,3.7,22.9,35.9,18.5,67.5l-22.7-8.2L624,574.5L638.5,557.7z"/>
		</g>
		<g>
			<path class="st14" d="M548.1,544.5c0,0,13.9-25,47.8-18.1c33.9,6.9,52.4,55.4,43.2,151.4c0,0-53.8-21.4-123.8-4.1
				C515.2,673.7,526.7,580.7,548.1,544.5z"/>
		</g>
		<g>
			<path class="st14" d="M522.2,534.4l23.8,23.8c0,0,61,16.5,78,16.3c17-0.2,23.6-12.6,23.6-12.6s-14.3-22.7-43.3-32.9
				c-2.7-1-5.6-1.8-8.5-2.5c-5-1.2-10.1-1.9-15.1-2.2C550.8,522.5,522.2,534.4,522.2,534.4z"/>
		</g>
		<g>
			<path class="st11" d="M522.2,534.4c-3.8,4.1,2.1,8.7,8.6,15.2c6.6,6.6,13.4,10.4,15.2,8.6c1.8-1.8-2.1-8.7-8.6-15.2
				C530.8,536.4,524,532.5,522.2,534.4z"/>
		</g>
		<g>
			<path class="st10" d="M542.9,558.3c0,0,0.4-4.7-5.6-10.8c-3.6-3.7-8.1-6-11.2-7.4c-1.8-0.8-3.9,0.1-4.6,2l-1.9,4.9l8.9,5.7
				L542.9,558.3z"/>
		</g>
		<g>
			<path class="st12" d="M584.9,646.3c0,0-73.5-39.8-99.8,3.6c-19.5,32.1,9.8,62.1,118.5,59c0,0,10.7-5,8.1-31.1
				C610.7,667.5,584.9,646.3,584.9,646.3z"/>
		</g>
		<g>
			<path class="st12" d="M584.9,646.3c0,0,97.8-40.1,117.2-15c22.2,28.8,0.9,77.7-102.2,60.2l-12.6-13.6L584.9,646.3z"/>
		</g>
		<g>
			<path class="st13" d="M603.8,709.2l-0.2-0.3c11.4-8.1,8.3-29,8.1-30.8l-74.2-27l0.1-0.4l74.4,27.1l0,0.1
				C612,678.1,615.8,700.6,603.8,709.2z"/>
		</g>
		<g>
			<path class="st11" d="M612.4,685.1c0,0,18,0.7,26.5,4.9c8.5,4.2,3.9,14.3-13.3,14c-17.2-0.3-15.9-2.8-15.9-2.8
				S613,692.2,612.4,685.1z"/>
		</g>
		<g>
			<g>
				<path class="st10" d="M589.3,648.3c6,0,10.9-1.5,14.9-4.5c7.5-5.7,8.9-14.7,7.8-20.7l-7.2-4.2c-0.4-2-14.2,5.4-14.2,5.3
					c-0.1,0-6.6,1.9-29.4-9.7c-15.8-8.1-23.8-19.6-24.4-35.1c-0.4-11.7,4.8-18.3,6-21.1c0.2-0.4-7.6-8.2-7.4-9l-5.9-3
					c0.2-0.7-5.6-3-5.5-3.2l-4.5,3.8c-2.2,5.2-7,17-6.4,33.3c0.6,17,7.6,40.3,37.4,55.5C566.7,644.2,579.5,648.3,589.3,648.3z"/>
			</g>
		</g>
		<g>
			<g>
				<path class="st11" d="M594.1,649.2h63.4c1.3,0,2.5-0.8,2.9-2.1l13.2-39.3c0.7-2-0.8-4-2.9-4h-61c-2.8,0-5.2,1.8-6.1,4.4
					l-12.4,37.1C590.5,647.2,592,649.2,594.1,649.2z"/>
			</g>
			<g>
				<path class="st11" d="M598.1,649.2h63.4c1.3,0,2.5-0.8,2.9-2.1l13.2-39.3c0.7-2-0.8-4-2.9-4h-61c-2.8,0-5.2,1.8-6.1,4.4
					l-12.4,37.1C594.5,647.2,596,649.2,598.1,649.2z"/>
			</g>
			<g>
				<path class="st20" d="M642.5,625.2c0-1.5-1.7-2.1-3.2-2.1c-1.5,0-4,1.6-3.9,3.7c0,2.3,1.8,2.6,3.3,2.6
					C640.1,629.4,642.5,627.1,642.5,625.2z"/>
			</g>
			<g>
				<path class="st11" d="M574.6,643.6h86.9v5.6h-88.6c-1,0-1.8-0.8-1.8-1.8v-0.2C571.1,645.2,572.7,643.6,574.6,643.6z"/>
			</g>
			<g>
				<path class="st21" d="M602.6,623.6l-0.4-0.1c0.1-0.5,3.2-11.8,5.2-15.5c2.1-3.7,4.6-4.5,4.7-4.5l0.1,0.4c0,0-2.5,0.7-4.5,4.3
					C605.8,611.8,602.6,623.5,602.6,623.6z"/>
			</g>
			<g>
				<path class="st21" d="M593.2,643.9v-0.4c2.1,0,2.6-0.9,2.6-0.9l4.9-14.7l0.4,0.1l-4.9,14.8C596.2,642.8,595.6,643.9,593.2,643.9
					z"/>
			</g>
		</g>
		<g>
			<path class="st19" d="M532.3,614.1c-0.2,0-0.5,0-0.7-0.1c-1.4-0.4-2.9-1.7-3.9-3.6l0,0c-1.6-2.8-1.7-5.7-0.1-6.6
				c0.5-0.3,1.1-0.3,1.7-0.2c1.4,0.4,2.9,1.7,3.9,3.6c1.6,2.8,1.6,5.7,0.1,6.6C533,614.1,532.7,614.1,532.3,614.1z M528.4,610.1
				c0.9,1.6,2.3,2.9,3.4,3.2c0.4,0.1,0.8,0.1,1.1-0.1c1.1-0.7,0.9-3.2-0.4-5.5c-0.9-1.6-2.3-2.9-3.4-3.2c-0.4-0.1-0.8-0.1-1.1,0.1
				C526.9,605.2,527.1,607.7,528.4,610.1L528.4,610.1z"/>
		</g>
		<g>
			<path class="st10" d="M580.2,524.2c4.2-0.1,7.3-0.6,9.7-3.4l7.4-8.7l2.2-2.5l12.7-14.9l-6.7,17.5l-4,10.5l-1.3,3.3
				c-0.9,2.3,0.3,3.3,1.1,5.9c0.3,1.1,2.5,7.6-3.2,7.7c-7.1,0.1-16.1-8.2-18.1-15.3C580.1,524.2,580.2,524.2,580.2,524.2z"/>
		</g>
		<g>
			<path class="st11" d="M595.3,506.5c0,0-14-13.4-5.9-24.8c8.1-11.3,10.1,18.2,10.1,18.2l-2.3,6.8L595.3,506.5z"/>
		</g>
		<g>
			<path class="st11" d="M597.4,511.8c0,0.1-0.1,0.2-0.1,0.3c-1.3,5.9,4.1,10.5,4.1,10.5l0,0l4-10.5c-1.7-1.3-4.2-2.8-6-2.5
				C598.5,509.7,597.8,510.4,597.4,511.8z"/>
		</g>
		<g>
			<path class="st10" d="M627,504.5c3.2-10.5-1.3-21.1-9.9-23.8c-8.6-2.6-18.2,3.7-21.3,14.2c-3.2,10.5,1.3,21.1,9.9,23.8
				C614.3,521.4,623.8,515,627,504.5z"/>
		</g>
		<g>
			<path class="st11" d="M598.7,493.4c0,0,4.5,3.2,8.2,0.5c3.7-2.7,6.4-5.3,14.7-1.1c8.4,4.2,17.5,2.3,19.2-2.4
				c1.7-4.7-2.3-8.4-7.5-8.1c-5.2,0.2,1.1-2.6-2.5-7.6c-3.6-5-12.9,0.2-17.5-2.3c-4.6-2.5-20.9-4.6-23.9,9.4L598.7,493.4z"/>
		</g>
		<g>
			<path class="st10" d="M595.2,496.2c1.1,1.7,3.1,2.2,4.6,1.2c1.5-1,1.8-3.1,0.7-4.8c-1.1-1.7-3.1-2.2-4.6-1.2
				C594.5,492.5,594.2,494.6,595.2,496.2z"/>
		</g>
		<g>
			<path class="st16" d="M631.6,488.8c-3.5,0-8.3-4.3-8.5-4.5l0.4-0.5c0.1,0.1,5.6,5.1,8.8,4.2c1.2-0.3,1.9-0.9,1.8-1.5
				c-0.1-0.6-1-1.2-2.2-1c-2.7,0.3-4.2-0.6-4.3-0.7l0.3-0.5c0,0,1.4,0.8,3.9,0.6c1.7-0.2,2.7,0.7,2.9,1.5c0.1,0.8-0.4,1.7-2.3,2.2
				C632.2,488.7,631.9,488.8,631.6,488.8z"/>
		</g>
		<g>
			<path class="st16" d="M617.2,477c-1.2,0-2.4-0.2-3.5-0.6c-1.5-0.6-2.7-1.2-3.9-1.9c-2.4-1.3-4.4-2.3-6.6-1.9L603,472
				c2.4-0.5,4.6,0.7,7,2c1.2,0.6,2.5,1.3,3.9,1.9c4.2,1.7,9.2-0.7,9.5-1l0.4,0.4C623.6,475.6,620.5,477,617.2,477z"/>
		</g>
		<g>
			<path class="st16" d="M593.6,481c-0.1,0-0.2,0-0.2,0c-0.2-0.1-0.5-0.3-0.3-1.1l0-0.1c0.3-0.5,2.1-2.9,3.3-2.1
				c0.2,0.1,0.5,0.4,0.2,1.1C596.2,479.5,594.5,481,593.6,481z M593.6,480.1c-0.1,0.2,0,0.3,0,0.3c0.2,0.1,1-0.4,1.9-1.2
				c0.6-0.6,0.6-0.9,0.6-1C595.6,477.9,594.3,479.1,593.6,480.1z"/>
		</g>
		<g>
			<g>
				<path class="st17" d="M614.5,500.3c0.1,0,0.2-0.1,0.2-0.2c0.1-0.2,0-0.4-0.1-0.5c-0.1-0.1-2.2-1.5-4.4,0.4
					c-0.1,0.1-0.2,0.3,0,0.5c0.1,0.1,0.3,0.1,0.5,0c1.6-0.8,3.5-0.4,3.6-0.3C614.4,500.2,614.4,500.3,614.5,500.3z"/>
			</g>
		</g>
		<g>
			<path class="st17" d="M611.5,503.6c-0.1,0.8,0.2,1.5,0.8,1.6c0.6,0.1,1.1-0.5,1.2-1.3c0.1-0.8-0.2-1.5-0.8-1.6
				C612.1,502.2,611.6,502.8,611.5,503.6z"/>
		</g>
		<g>
			<g>
				<path class="st17" d="M626.1,504.4c0.1,0,0.2,0,0.2-0.1c0.1-0.1,0.1-0.3,0.1-0.5c0-0.1-1-2.1-3.2-1.1c-0.1,0.1-0.2,0.3-0.2,0.4
					c0,0.2,0.2,0.2,0.3,0.2c1.4-0.2,2.6,0.8,2.7,0.9C626,504.4,626,504.4,626.1,504.4z"/>
			</g>
		</g>
		<g>
			<path class="st17" d="M621.9,506.3c-0.4,0.7-0.4,1.5,0.1,1.8c0.5,0.3,1.2,0,1.6-0.7c0.4-0.7,0.4-1.5-0.1-1.8
				C623.1,505.3,622.3,505.6,621.9,506.3z"/>
		</g>
		<g>
			<g>
				<path class="st13" d="M612.5,514.7c-2,0-5-0.6-6.8-3.7c-0.1-0.1,0-0.3,0.1-0.3c0.1-0.1,0.3,0,0.3,0.1c2.7,4.7,8.2,3.3,8.3,3.3
					c0.1,0,0.3,0,0.3,0.2c0,0.1,0,0.3-0.2,0.3C614.4,514.5,613.6,514.7,612.5,514.7z"/>
			</g>
			<g>
				<path class="st13" d="M605.2,511.7C605.2,511.7,605.2,511.7,605.2,511.7c-0.2-0.1-0.3-0.2-0.2-0.3c0.2-0.6,0.7-1.1,1.5-1.6l0,0
					c0.1-0.1,0.3,0,0.3,0.1c0.1,0.1,0,0.2-0.1,0.3c0,0,0,0-0.1,0c-0.9,0.5-1.2,1-1.3,1.3C605.4,511.7,605.3,511.7,605.2,511.7z"/>
			</g>
		</g>
		<g>
			
				<rect x="632.3" y="560.8" transform="matrix(0.9499 -0.3125 0.3125 0.9499 -145.4357 226.1329)" class="st11" width="1" height="12"/>
		</g>
		<g>
			<path class="st16" d="M623.8,517.6c-1.2,0-2.3-0.4-3.1-1.3c-2.8-2.8-2.7-9.2,0.3-14.3c1.8-3.1,4.4-5.2,6.8-5.5
				c1.5-0.2,2.8,0.2,3.8,1.3c2.8,2.8,2.7,9.2-0.3,14.3c-1.8,3.1-4.4,5.2-6.8,5.5C624.2,517.5,624,517.6,623.8,517.6z M628.4,497.1
				c-0.2,0-0.4,0-0.6,0c-2.2,0.3-4.6,2.2-6.3,5.2c-2.8,4.9-3,10.9-0.4,13.4c0.9,0.9,2,1.2,3.2,1.1c2.2-0.3,4.6-2.2,6.3-5.2
				c2.8-4.9,3-10.9,0.4-13.4C630.3,497.4,629.4,497.1,628.4,497.1z"/>
		</g>
		<g class="st18">
			<path class="st16" d="M604.3,494.5c-2.4,5.1-1.7,11.3,1.5,13.8c3.2,2.5,7.7,0.5,10.1-4.6c2.4-5.1,1.7-11.3-1.5-13.8
				C611.2,487.3,606.7,489.4,604.3,494.5z"/>
		</g>
		<g class="st18">
			<path class="st16" d="M620.7,502.4c-2.4,5.1-2.1,11.3,0.7,13.8c2.8,2.5,7,0.5,9.4-4.7c2.4-5.1,2.1-11.3-0.7-13.8
				C627.3,495.2,623.1,497.3,620.7,502.4z"/>
		</g>
		<g>
			<path class="st16" d="M609.4,509.6c-1.3,0-2.4-0.4-3.5-1.2c-3.5-2.8-4.3-9.4-1.7-14.8c1.5-3.2,3.8-5.3,6.4-5.9
				c1.8-0.4,3.4,0,4.9,1.1c3.5,2.8,4.3,9.4,1.7,14.8c-1.5,3.2-3.8,5.3-6.4,5.9C610.3,509.6,609.8,509.6,609.4,509.6z M612,488.2
				c-0.4,0-0.8,0-1.2,0.1c-2.3,0.5-4.6,2.6-5.9,5.6c-2.4,5.1-1.8,11.4,1.5,14c1.3,1,2.7,1.3,4.3,0.9c2.3-0.5,4.6-2.6,5.9-5.6
				c2.4-5.1,1.8-11.4-1.5-14C614.1,488.5,613.1,488.2,612,488.2z"/>
		</g>
		<g>
			<path class="st16" d="M621.1,504.5c-0.2,0-0.4-0.1-0.5-0.2c-0.1-0.1-1.4-1.7-4.3-1.8c-0.4,0-0.6-0.3-0.6-0.7
				c0-0.4,0.3-0.6,0.7-0.6c3.6,0.1,5.2,2.2,5.3,2.3c0.2,0.3,0.2,0.7-0.1,0.9C621.4,504.5,621.2,504.5,621.1,504.5z"/>
		</g>
	</g>
	<g>
		<g>
			<g>
				<path class="st10" d="M370.2,414.5c0,0-26.2,33.8-24.4,60c1.8,26.2,32.8,5.3,32.8,5.3l2.7-62L370.2,414.5z"/>
			</g>
			<g>
				<path class="st11" d="M334.4,648.8c0,0,0.2,7.7-4.9,10.1c-5.1,2.4-20,5.2-14.1,9.9c3.4,2.7,18.5,0,22.8-0.2
					c4.3-0.2,8.4,1.4,11.5-1.6c3.3-3.4-1-18.9-1-18.9s-3.6,2.1-6.9,2.2C336.9,650.4,334.4,648.8,334.4,648.8z"/>
			</g>
			<g>
				<path class="st11" d="M287.6,648.7c0,0,0.2,7.7-4.9,10.1c-5.1,2.5-20,5.2-14.1,9.9c3.4,2.7,18.5,0,22.8-0.2
					c4.3-0.2,8.4,1.4,11.5-1.6c3.3-3.4-1-18.9-1-18.9s-3.6,2.1-6.9,2.2C290.1,650.3,287.6,648.7,287.6,648.7z"/>
			</g>
			<g>
				<g>
					<path class="st21" d="M282,636c3.8-50.4,4.7-84.4,20.6-106.2c17.4-23.9,64.2-40.8,82.3-41.9c29.4-1.7,43.3,2.7,43.3,2.7
						c22.1,45.9-12.5,52-38.1,53.3c-0.8,0-1.7,0.1-2.5,0.1c-15.5,1-43,4.9-53.5,20.3c-8.3,12.2-14,29.3-16.4,73.4
						c-0.5,8.5-7.6,15-16,14.8C301.7,652.5,280.6,654.2,282,636z"/>
				</g>
			</g>
			<g>
				<g>
					<path class="st21" d="M323.7,638.6c-0.5-50.5-2.1-76.3,13.1-98.7c9.7-14.4,24.4-25.2,43.5-32.3c13.7-5,29.7-8.1,47.8-9.2
						c29.4-1.7,42.6-5.3,42.6-5.3c23.8,58.8-63.3,46.3-86,71.3c-9.9,10.9-22.1,31.7-24.5,75.8c-0.5,8.5-7.6,15-16,14.8
						C344.3,655.2,323.9,657.1,323.7,638.6z"/>
				</g>
			</g>
			<g>
				<path class="st13" d="M323.9,589l-0.3,0c0-0.3,1.5-30.3,6.6-40.9c6.4-13.3,24.9-27.2,44.1-33.1l0.1,0.3
					c-19.1,5.8-37.5,19.6-43.9,32.9C325.4,558.7,323.9,588.7,323.9,589z"/>
			</g>
			<g>
				<path class="st28" d="M449.9,399.9c0,0-12.5-21.4-41.4-14.8c-28.8,6.6-40.6,36-42.7,106.8c0,0,26.7-1,96.9,22.3
					c8.3,2.8,20.5,0.6,16.2-13.6C471.1,474.2,463.4,421.8,449.9,399.9z"/>
			</g>
			<g>
				<path class="st28" d="M481.7,406.1l-29.7,5.6c0,0-51.9,15.3-66.4,15.5c-14.5,0.1-20.5-10.5-20.5-10.5s11.7-19.9,36.3-29.3
					c2.3-0.9,4.7-1.7,7.3-2.3c4.3-1.1,8.6-2.1,12.9-2.2C470.5,382.4,481.7,406.1,481.7,406.1z"/>
			</g>
			<g>
				<path class="st11" d="M481.7,406.1c0.6,2.3-5.6,6.2-13.9,8.7c-8.3,2.5-15.6,2.6-16.2,0.2c-0.6-2.3,5.6-6.2,13.9-8.7
					C473.8,403.9,481,403.8,481.7,406.1z"/>
			</g>
			<g>
				<path class="st10" d="M421.4,382.9c-3.2,0.3-6.2-1.2-8-3.8l-5.6-8.3l-1.6-2.4l-9.5-14.1l4.2,15.7l2.5,9.4l0.7,2.7
					c0.6,2.2-0.6,4.4-2.7,5.3l0,0c-0.8,2.1-1.7,6.3,3.4,7C410.8,395.1,419.2,388.9,421.4,382.9C421.5,382.9,421.4,382.9,421.4,382.9
					z"/>
			</g>
			<g>
				<path class="st6" d="M414.2,348.3c0,0-0.1,2.7,2.4,7.8c3.7,7.4-4.6,12.4-7.4,10.6c-0.3-0.2-2.5-13.6-2.5-13.6l2.5-2.2
					L414.2,348.3z"/>
			</g>
			<g>
				<path class="st11" d="M407.8,370.6c0,0.1,0,0.2,0,0.3c0.6,5.2-4.4,8.6-4.4,8.6l0,0l-2.5-9.4c1.6-0.9,3.8-2,5.4-1.6
					C407,368.7,407.6,369.3,407.8,370.6z"/>
			</g>
			<g>
				<path class="st10" d="M381.5,359.9c-1.9-10.2,3.2-19.7,11.4-21.3c8.3-1.6,16.5,5.4,18.4,15.6c1.9,10.2-3.2,19.7-11.4,21.3
					C391.7,377,383.4,370.1,381.5,359.9z"/>
			</g>
			<g>
				<path class="st6" d="M387.8,344c0.5,0.5,0,10.4,18,9.3c18-1.1,3.4-20.4-9.7-18.4c-18.8,2.9-19.2,16-16.5,20.2
					C382.3,359.3,387.8,344,387.8,344z"/>
			</g>
			<g>
				<path class="st6" d="M412.7,327.2c0,0-6.9,6.8,0.1,10.6c7,3.8,24.1,2.8,21.2,12.1c-3,9.3-4.5,22.4,3.9,22.4
					c8.5,0,13.5-1.6,18.1,4.3c4.6,5.9,18.7-1,16-8.5c-2.7-7.5,8.8-16.8,1.9-22.9c-6.8-6.1-21.4-9.8-26.5-18.5
					C442.4,318,418.3,322,412.7,327.2z"/>
			</g>
			<g>
				<path class="st6" d="M403.3,350.7c0,0,8.6,6.2,7.6,14.4c0,0,3.3-5.3,3.1-7.1c-0.2-1.7-2.5-7.6-2.5-7.6L403.3,350.7z"/>
			</g>
			<g>
				<path class="st10" d="M409.9,357.4c-1.4,1.9-3.7,2.6-5.2,1.4c-1.5-1.2-1.6-3.7-0.2-5.6c1.4-1.9,3.7-2.6,5.2-1.4
					C411.2,352.9,411.3,355.4,409.9,357.4z"/>
			</g>
			<g>
				<path class="st16" d="M455.7,376.7c-2.2-8.3-7.1-8.7-12.3-9.1c-2.1-0.2-4.2-0.3-6.2-1c-1-0.3-1.6-0.8-2-1.6
					c-0.9-1.9,0.1-4.8,1.4-8.2c1.8-5,3.8-10.6,0.8-15c-5.9-8.5-14.8-8.9-14.9-8.9c-5.2,0.3-7.9-0.3-8.2-1.8c-0.3-1.5,2.1-3.3,3-3.6
					c7.3-2.5,15.7-3.6,27.9,6.1c9.6,7.6,9,11.9,8.1,17.3c-0.2,1.2-0.4,2.4-0.5,3.8c-0.1,1.1,0.2,1.8,0.7,2.4
					c1.2,1.2,3.8,1.2,6.3,1.2c3.3,0,6.7-0.1,7.6,2.5c0.7,2-0.1,4.5-0.9,6.8c-0.8,2.4-1.6,4.7-0.6,6.3c0.6,1,1.9,1.7,4,2.1l-0.1,0.6
					c-2.3-0.4-3.7-1.2-4.4-2.4c-1.1-1.8-0.3-4.2,0.6-6.8c0.8-2.2,1.5-4.6,0.9-6.4c-0.8-2.2-3.8-2.1-7-2.1c-2.7,0-5.4,0.1-6.8-1.4
					c-0.6-0.7-0.9-1.6-0.8-2.9c0.1-1.4,0.3-2.6,0.5-3.8c0.8-5.2,1.4-9.3-7.9-16.7c-11.9-9.4-20.2-8.4-27.3-6
					c-0.9,0.3-2.8,1.8-2.6,2.9c0.1,0.5,1.1,1.7,7.6,1.3c0.1,0,9.4,0.4,15.4,9.1c3.2,4.6,1,10.7-0.7,15.6c-1.2,3.3-2.2,6.1-1.4,7.8
					c0.3,0.6,0.8,1,1.6,1.3c2,0.6,4.1,0.8,6.1,0.9c5.4,0.4,10.5,0.8,12.9,9.6L455.7,376.7z"/>
			</g>
			<g>
				<path class="st16" d="M402.8,347.8c-5.6,0-9.2-3.8-9.2-3.9l0.4-0.4c0,0,4.3,4.6,10.8,3.5l0.1,0.6
					C404.2,347.8,403.5,347.8,402.8,347.8z"/>
			</g>
			<g>
				<g>
					<path class="st12" d="M386.5,371c-1.1,0.2-2.3,0.1-3.4-0.4c-1.8-0.8-3.3-2.4-4.1-4.5c-1.5-3.8,0-7.9,3.2-9.2
						c1.4-0.5,2.9-0.5,4.4,0.2c1.8,0.8,3.3,2.4,4.1,4.5c1.5,3.8,0,7.9-3.2,9.2C387.1,370.8,386.8,370.9,386.5,371z M383.1,357
						c-0.3,0.1-0.6,0.1-0.9,0.3c-3,1.2-4.3,5.1-3,8.7c0.7,1.9,2.2,3.5,3.9,4.3c1.4,0.6,2.8,0.7,4.1,0.2c3-1.2,4.3-5.1,3-8.7
						c-0.7-1.9-2.2-3.5-3.9-4.3C385.3,356.9,384.2,356.8,383.1,357z"/>
				</g>
			</g>
			<g>
				<g>
					<path class="st12" d="M400.6,366.2c-1.1,0.2-2.3,0.1-3.4-0.4c-1.8-0.8-3.3-2.4-4.1-4.5c-1.5-3.8,0-7.9,3.2-9.2
						c1.4-0.5,2.9-0.5,4.4,0.2c1.8,0.8,3.3,2.4,4.1,4.5l0,0c1.5,3.8,0,7.9-3.2,9.2C401.2,366.1,400.9,366.1,400.6,366.2z
						 M397.2,352.2c-0.3,0.1-0.6,0.1-0.9,0.3c-3,1.2-4.3,5.1-3,8.7c0.7,1.9,2.2,3.5,3.9,4.3c1.4,0.6,2.8,0.7,4.1,0.2
						c3-1.2,4.3-5.1,3-8.7l0,0c-0.7-1.9-2.2-3.5-3.9-4.3C399.4,352.2,398.3,352,397.2,352.2z"/>
				</g>
			</g>
			<g>
				<g>
					<path class="st12" d="M388.9,362.6c-0.1,0-0.1,0-0.2,0c-0.1-0.1-0.1-0.2,0-0.3c0.1-0.1,1.7-1.8,5.2-1.9c0.1,0,0.2,0.1,0.2,0.2
						c0,0.1-0.1,0.2-0.2,0.2C390.7,360.8,389.1,362.5,388.9,362.6C389,362.5,389,362.6,388.9,362.6z"/>
				</g>
			</g>
			<g>
				<path class="st15" d="M390.5,370.5c0,0,5.1-0.9,9.9-3.6c0,0,1.4,5-4.1,6.3C393.1,374.1,390.5,370.5,390.5,370.5z"/>
			</g>
			<g>
				<path class="st16" d="M390.5,370.5c0,0,1.4,0.8,4.3,0.2c2.9-0.6,5.6-3.8,5.6-3.8S394.5,369.8,390.5,370.5z"/>
			</g>
			<g>
				<g>
					<path class="st17" d="M395,357.5c-0.1,0-0.2-0.1-0.3-0.2c-0.1-0.2-0.1-0.4,0.1-0.5c0.1-0.1,2.2-1.7,4.6,0.1
						c0.2,0.1,0.2,0.3,0.1,0.5c-0.1,0.2-0.3,0.2-0.5,0.1c-1.8-0.8-3.7-0.2-3.8-0.1C395.2,357.5,395.1,357.5,395,357.5z"/>
				</g>
			</g>
			<g>
				<path class="st17" d="M398.4,360.7c0.2,0.8-0.1,1.6-0.7,1.7c-0.6,0.1-1.2-0.4-1.4-1.2c-0.2-0.8,0.1-1.6,0.7-1.7
					C397.6,359.4,398.3,359.9,398.4,360.7z"/>
			</g>
			<g>
				<g>
					<path class="st17" d="M383.2,361.6c-0.1,0-0.2,0-0.3,0c-0.2-0.1-0.2-0.3-0.1-0.5c0.1-0.1,1.4-2.4,4.3-1.6
						c0.2,0,0.3,0.2,0.3,0.4c0,0.2-0.2,0.3-0.4,0.3c-1.9,0-3.5,1.3-3.6,1.3C383.4,361.5,383.3,361.6,383.2,361.6z"/>
				</g>
			</g>
			<g>
				<path class="st17" d="M387.6,363.3c0.5,0.7,0.5,1.5,0,1.8c-0.5,0.3-1.3,0.1-1.7-0.6c-0.5-0.7-0.5-1.5,0-1.8
					C386.4,362.3,387.1,362.6,387.6,363.3z"/>
			</g>
			<g>
				<g>
					<path class="st10" d="M471.7,468.9c-10.7,15.4-23.9,23.9-52,29l-1.1-18c34.2-12.6,38-53.4,36.3-63.8c-0.2-1,0.2-2,1-2.6
						c2.6-2,9.4-6.1,21.5-6.3c1.1,0,2,0.7,2.3,1.7C484.8,428.1,484.3,450.7,471.7,468.9z"/>
				</g>
			</g>
			<g class="st18">
				<path class="st19" d="M460.8,474.3c-0.5,0-0.9-0.1-1.3-0.3c-2.2-0.9-3-4.1-1.7-7.1c0.7-1.7,2-3.1,3.5-3.7c1-0.4,2-0.4,2.9,0
					c2.2,0.9,3,4.1,1.7,7.1l0,0c-0.7,1.7-2,3.1-3.5,3.7C461.8,474.2,461.3,474.3,460.8,474.3z M462.7,463.9c-0.4,0-0.8,0.1-1.2,0.2
					c-1.2,0.5-2.3,1.7-2.9,3.1c-1.1,2.5-0.5,5.1,1.2,5.9c0.6,0.3,1.4,0.3,2.1,0c1.2-0.5,2.3-1.7,2.9-3.1l0,0
					c1.1-2.5,0.5-5.1-1.2-5.9C463.4,464,463,463.9,462.7,463.9z"/>
			</g>
			<g>
				<g>
					<path class="st10" d="M418.6,479.9c0,0-16.7-0.9-21,2.6c-4.3,3.6-7.1,11.4-4,9.7c3.1-1.6,6.6-4.9,6.6-4.9s-7,7.2-4.6,8.1
						c2.4,0.9,8.4-5.4,8.4-5.4s-7.6,9.3-5.1,9.4c2.5,0.1,8.3-6.9,8.3-6.9s-6.8,8.9-3.8,9c3,0.1,5.5-7.4,7.9-6.5
						c2.4,0.9,9.3,6.1,12.6-0.2L418.6,479.9z"/>
				</g>
				<g>
					<path class="st22" d="M400.4,487.5l-0.3-0.2c0.1-0.1,1.8-2.4,3.6-2.4l0,0.4c0,0,0,0,0,0C402.1,485.3,400.5,487.5,400.4,487.5z"
						/>
				</g>
				<g>
					<path class="st22" d="M404.3,490.2l-0.3-0.2c0.1-0.1,1.7-2.4,4.2-2.8l0.1,0.4C405.8,488,404.3,490.2,404.3,490.2z"/>
				</g>
				<g>
					<path class="st22" d="M407.5,492.7l-0.3-0.2c0.1-0.1,2.1-2.9,4-2.7l0,0.4C409.4,490,407.5,492.6,407.5,492.7z"/>
				</g>
			</g>
			<g>
				<g>
					<path class="st11" d="M400.7,505.6h-55.3c-1.2,0-2.2-0.7-2.6-1.8l-11.5-34.3c-0.6-1.7,0.7-3.5,2.6-3.5h53.2
						c2.4,0,4.6,1.5,5.3,3.8l10.8,32.3C403.8,503.8,402.5,505.6,400.7,505.6z"/>
				</g>
				<g>
					<path class="st11" d="M397.2,505.6h-55.3c-1.2,0-2.2-0.7-2.6-1.8l-11.5-34.3c-0.6-1.7,0.7-3.5,2.6-3.5h53.2
						c2.4,0,4.6,1.5,5.3,3.8l10.8,32.3C400.3,503.8,399,505.6,397.2,505.6z"/>
				</g>
				<g>
					<path class="st20" d="M358.5,484.6c0-1.3,1.5-1.8,2.8-1.8c1.3,0,3.5,1.4,3.4,3.3c0,2-1.6,2.2-2.9,2.2
						C360.5,488.3,358.5,486.3,358.5,484.6z"/>
				</g>
				<g>
					<path class="st11" d="M417.7,500.7h-75.8v4.9h77.3c0.9,0,1.6-0.7,1.6-1.6v-0.2C420.8,502.1,419.4,500.7,417.7,500.7z"/>
				</g>
				<g>
					<path class="st21" d="M393.3,483.2c0-0.1-2.7-10.3-4.5-13.4c-1.7-3.1-3.9-3.7-3.9-3.7l0.1-0.3c0.1,0,2.3,0.7,4.1,3.9
						c1.8,3.2,4.4,13.1,4.5,13.5L393.3,483.2z"/>
				</g>
				<g>
					<path class="st21" d="M401.4,500.9c-2.1,0-2.6-0.9-2.6-0.9l-4.3-12.9l0.3-0.1l4.3,12.9l0,0c0,0,0.5,0.7,2.3,0.7V500.9z"/>
				</g>
			</g>
		</g>
	</g>
	<g>
		<g>
			<path class="st11" d="M486.4,182.4c0,0-2.2,19.5,2.2,19.3c4.5-0.2,13.5-8.5,31.2-6.6c17.7,1.9,39.3,6.4,53-16.4
				c13.8-22.8-15.9-30.4-15.9-30.4L486.4,182.4L486.4,182.4z"/>
		</g>
		<g>
			<polygon class="st12" points="524.1,182.1 434.6,186.8 432.8,182.8 520.3,122.1 607.1,114.6 608.6,118.2 524.1,182.1 			"/>
		</g>
		<g>
			<g>
				<path class="st14" d="M465.9,252.2c0.5-1.8,2.2-2.8,3.8-2.3c1.7,0.5,2.6,2.3,2.2,4.1c-0.5,1.8-2.2,2.8-3.8,2.3
					C466.4,255.8,465.4,254,465.9,252.2L465.9,252.2z"/>
			</g>
			<g>
				<path class="st14" d="M468.5,253.1c-3.2-0.2-3.7,30.8-3.7,30.8s2.1,1,3.1,0.8c1-0.3,1.5-4.5,1.5-4.5l0.1,4.4
					c0,0,3.5,0.1,4.8-0.8C474.4,283.8,473.6,253.5,468.5,253.1L468.5,253.1z"/>
			</g>
		</g>
		<g>
			<path class="st14" d="M467.4,250.8l-0.5-63.4c-0.7-5.8,1.9-11.4,6.7-14.7l38.9-27c0.9-0.6,2-0.4,2.6,0.5l0,0
				c0.3,0.4,0.2,1-0.2,1.3l-41.3,28.7c-3.2,2.2-4.9,6-4.4,9.8l0.5,65.5L467.4,250.8z"/>
		</g>
	</g>
	<g class="st5">
		<path class="st28" d="M550.3,367.1h-17.6c-8.2,0-14.9-6.7-14.9-14.9v-30.1c0-8.2,6.7-14.9,14.9-14.9h17.6
			c8.2,0,14.9,6.7,14.9,14.9v30.1C565.2,360.4,558.6,367.1,550.3,367.1z"/>
	</g>
	<g>
		<path class="st20" d="M556.3,327.5h-29.1c-0.6,0-1.6-0.7-1.7-1.3c-0.2-1.3,1.1-1.7,1.7-1.7l29.1,0.6c0.6,0,1.2,0.5,1.2,1.2l0,0
			C557.4,327,556.9,327.5,556.3,327.5z"/>
	</g>
	<g>
		<path class="st20" d="M548.7,322h-22c-0.5,0-1.2-0.5-1.3-1c-0.1-1,0.8-1.3,1.3-1.3l22,0.5c0.5,0,0.9,0.4,0.9,0.9l0,0
			C549.6,321.6,549.2,322,548.7,322z"/>
	</g>
	<g>
		<path class="st20" d="M548.7,333h-22c-0.5,0-1.2-0.5-1.3-1c-0.1-1,0.8-1.3,1.3-1.3l22,0.5c0.5,0,0.9,0.4,0.9,0.9l0,0
			C549.6,332.6,549.2,333,548.7,333z"/>
	</g>
	<g>
		<path class="st20" d="M556.3,349.5h-29.1c-0.6,0-1.6-0.7-1.7-1.3c-0.2-1.3,1.1-1.7,1.7-1.7l29.1,0.6c0.6,0,1.2,0.5,1.2,1.2l0,0
			C557.4,349,556.9,349.5,556.3,349.5z"/>
	</g>
	<g>
		<path class="st20" d="M548.7,344h-22c-0.5,0-1.2-0.5-1.3-1c-0.1-1,0.8-1.3,1.3-1.3l22,0.5c0.5,0,0.9,0.4,0.9,0.9l0,0
			C549.6,343.6,549.2,344,548.7,344z"/>
	</g>
	<g>
		<path class="st20" d="M548.7,355h-22c-0.5,0-1.2-0.5-1.3-1c-0.1-1,0.8-1.3,1.3-1.3l22,0.5c0.5,0,0.9,0.4,0.9,0.9l0,0
			C549.6,354.6,549.2,355,548.7,355z"/>
	</g>
</g>
</svg>
