<?xml version="1.0" encoding="utf-8"?>
<!-- Generator: Adobe Illustrator 22.1.0, SVG Export Plug-In . SVG Version: 6.00 Build 0)  -->
<svg version="1.1" id="Layer_1" xmlns="http://www.w3.org/2000/svg" xmlns:xlink="http://www.w3.org/1999/xlink" x="0px" y="0px"
	 viewBox="0 0 1097.6 494.4" style="enable-background:new 0 0 1097.6 494.4;" xml:space="preserve">
<title>Asset 2</title>
<image style="overflow:visible;enable-background:new    ;" width="640" height="640" xlink:href="../../../../Instagram Posts/Assets/wilmargroup.png"  transform="matrix(0.5291 0 0 0.5291 498.6539 39.2)">
</image>
<image style="overflow:visible;enable-background:new    ;" width="1200" height="1311" xlink:href="../../../../Instagram Posts/Assets/Makara_UI.png"  transform="matrix(9.416667e-02 0 0 9.416667e-02 21 313.2737)">
</image>
<image style="overflow:visible;enable-background:new    ;" width="512" height="512" xlink:href="../../../../Instagram Posts/Assets/Logo_Institut_Teknologi_Bandung.png"  transform="matrix(0.25 0 0 0.25 151.54 311)">
</image>
<image style="overflow:visible;enable-background:new    ;" width="250" height="140" xlink:href="../../../../Instagram Posts/Assets/1631871543unilever unioleo.png"  transform="matrix(0.78 0 0 0.78 903 0)">
</image>
<image style="overflow:visible;enable-background:new    ;" width="700" height="393" xlink:href="../../../../Instagram Posts/Assets/pt-bukit-asam-persero-tbk.jpg"  transform="matrix(0.34 0 0 0.34 854 136.26)">
</image>
<image style="overflow:visible;enable-background:new    ;" width="250" height="201" xlink:href="../../../../Instagram Posts/Assets/images12.png"  transform="matrix(0.87 0 0 0.87 685.5 293.985)">
</image>
<image style="overflow:visible;enable-background:new    ;" width="380" height="380" xlink:href="../../../../Instagram Posts/Assets/Badge_ITS.png"  transform="matrix(0.33 0 0 0.33 299.08 311)">
</image>
<image style="overflow:visible;enable-background:new    ;" width="1200" height="1226" xlink:href="../../../../Instagram Posts/Assets/1200px-Logo_UPH.gif"  transform="matrix(0.1044 0 0 0.1044 444.8968 308.44)">
</image>
<image style="overflow:visible;enable-background:new    ;" width="222" height="227" xlink:href="../../../../Instagram Posts/Assets/4cdb2644ba513b05fd21236fa9d5b909.jpg"  transform="matrix(0.58 0 0 0.58 585.56 303.41)">
</image>
<image style="overflow:visible;enable-background:new    ;" width="400" height="400" xlink:href="../../../../Instagram Posts/Assets/ljmu.png"  transform="matrix(0.56 0 0 0.56 861 269.42)">
</image>
<image style="overflow:visible;enable-background:new    ;" width="1200" height="705" xlink:href="../../../../Instagram Posts/Assets/1200px-Wings_(Indonesian_company)_logo.svg.png"  transform="matrix(0.1277 0 0 0.1277 0 19.2)">
</image>
<image style="overflow:visible;enable-background:new    ;" width="3182" height="764" xlink:href="../../../../Instagram Posts/Assets/Pertamina.png"  transform="matrix(0.1126 0 0 0.1126 172.7854 22.5583)">
</image>
<image style="overflow:visible;enable-background:new    ;" width="1200" height="226" xlink:href="../../../../Instagram Posts/Assets/Exxon_Mobil_Logo.svg.png"  transform="matrix(0.2656 0 0 0.2656 557 39.915)">
</image>
<image style="overflow:visible;enable-background:new    ;" width="2409" height="587" xlink:href="../../../../Instagram Posts/Assets/cap_logo.png"  transform="matrix(0.1654 0 0 0.1654 59.2375 166)">
</image>
</svg>
