<?xml version="1.0" encoding="utf-8"?>
<!-- Generator: Adobe Illustrator 22.1.0, SVG Export Plug-In . SVG Version: 6.00 Build 0)  -->
<svg version="1.1" id="a02f2390-8fa7-48a9-96f1-2ec5f63ecbc1"
	 xmlns="http://www.w3.org/2000/svg" xmlns:xlink="http://www.w3.org/1999/xlink" x="0px" y="0px" viewBox="0 0 1150 627.5"
	 style="enable-background:new 0 0 1150 627.5;" xml:space="preserve">
<image style="overflow:visible;" width="200" height="180" xlink:href="01ppi.jpg"  transform="matrix(1 0 0 1 689 161.4143)">
</image>
<image style="overflow:visible;" width="640" height="640" xlink:href="wilmargroup.png"  transform="matrix(0.5589 0 0 0.5589 390.8208 62.2243)">
</image>
<title>teacher</title>
<image style="overflow:visible;" width="1200" height="705" xlink:href="1200px-Wings_(Indonesian_company)_logo.svg.png"  transform="matrix(0.1256 0 0 0.1256 50.5759 44.3321)">
</image>
<image style="overflow:visible;" width="3182" height="764" xlink:href="Pertamina.png"  transform="matrix(0.1017 0 0 0.1017 225.7912 53.632)">
</image>
<image style="overflow:visible;" width="1200" height="226" xlink:href="Exxon_Mobil_Logo.svg.png"  transform="matrix(0.2495 0 0 0.2495 589.5896 64.3055)">
</image>
<image style="overflow:visible;" width="2409" height="587" xlink:href="cap_logo.png"  transform="matrix(0.1399 0 0 0.1399 50.5759 200)">
</image>
<image style="overflow:visible;" width="1200" height="1311" xlink:href="../../../../Instagram Posts/Assets/Makara_UI.png"  transform="matrix(9.610984e-02 0 0 9.610984e-02 35 349)">
</image>
<image style="overflow:visible;" width="512" height="512" xlink:href="../../../../Instagram Posts/Assets/Logo_Institut_Teknologi_Bandung.png"  transform="matrix(0.2461 0 0 0.2461 183.7414 349)">
</image>
<image style="overflow:visible;" width="250" height="140" xlink:href="../../../../Instagram Posts/Assets/1631871543unilever unioleo.png"  transform="matrix(0.7786 0 0 0.7786 938 38)">
</image>
<image style="overflow:visible;" width="700" height="393" xlink:href="../../../../Instagram Posts/Assets/pt-bukit-asam-persero-tbk.jpg"  transform="matrix(0.34 0 0 0.34 889 174.2602)">
</image>
<image style="overflow:visible;" width="250" height="201" xlink:href="../../../../Instagram Posts/Assets/images12.png"  transform="matrix(0.8682 0 0 0.8682 720.9602 332.6661)">
</image>
<image style="overflow:visible;" width="380" height="380" xlink:href="../../../../Instagram Posts/Assets/Badge_ITS.png"  transform="matrix(0.3253 0 0 0.3253 337 349)">
</image>
<image style="overflow:visible;" width="1200" height="1226" xlink:href="../../../../Instagram Posts/Assets/1200px-Logo_UPH.gif"  transform="matrix(0.1018 0 0 0.1018 488.4993 349)">
</image>
<image style="overflow:visible;" width="222" height="227" xlink:href="../../../../Instagram Posts/Assets/4cdb2644ba513b05fd21236fa9d5b909.jpg"  transform="matrix(0.578 0 0 0.578 627.5629 341.4143)">
</image>
<image style="overflow:visible;" width="400" height="400" xlink:href="../../../../Instagram Posts/Assets/ljmu.png"  transform="matrix(0.5625 0 0 0.5625 902 307.4161)">
</image>
</svg>
